<svg width="284" height="70" viewBox="0 0 284 70" fill="none" xmlns="http://www.w3.org/2000/svg">
<g clip-path="url(#clip0)">
<path fill-rule="evenodd" clip-rule="evenodd" d="M144.74 35.7246L145.364 35.8399C145.285 35.6672 145.403 35.3779 145.403 35.3779C144.933 35.4547 144.817 35.5992 144.817 35.5992L144.154 35.6183L144.74 35.7246ZM170.336 36.9763C170.258 36.9377 170.14 36.9092 169.943 36.9092C169.75 36.9092 169.554 36.9569 169.554 37.0245C169.554 37.0922 169.75 37.1399 169.943 37.1399C170.177 37.1399 170.375 37.0922 170.375 37.0245C170.373 37.0057 170.336 36.9954 170.336 36.9763ZM170.32 36.5243C170.33 36.5325 170.336 36.5429 170.336 36.5526C170.332 36.6014 170.208 36.6448 170.022 36.6615V36.8036C170.24 36.809 170.439 36.8367 170.571 36.8798C170.697 36.9213 170.765 36.972 170.765 37.0242C170.765 37.128 170.524 37.2118 170.175 37.2379C171.14 37.2194 171.744 37.1979 171.744 37.1979C170.804 37.1493 171.351 37.0148 171.351 37.0148C171.782 36.9277 172.602 36.86 172.602 36.86C171.625 36.8309 171.079 36.6388 170.841 36.5234H170.32V36.5243ZM169.829 37.2437C169.454 37.2285 169.164 37.1384 169.164 37.0245C169.164 36.9156 169.432 36.8279 169.788 36.8078V36.6664C169.57 36.6579 169.396 36.6157 169.361 36.5617L169.357 36.5626C168.968 36.5908 168.615 36.5908 168.615 36.5908C168.537 36.6391 168.693 36.6585 168.693 36.6585C169.513 36.803 168.968 36.9377 168.968 36.9377C168.578 37.0245 168.382 37.0245 168.382 37.0245C167.991 37.0537 167.053 37.2561 167.053 37.2561C168.097 37.264 169.054 37.2561 169.829 37.2437ZM159.12 36.3507C159.19 36.3507 159.259 36.3453 159.316 36.3352L160.096 36.4184C160.096 36.4758 160.252 36.5246 160.449 36.5246C160.57 36.5246 160.677 36.5052 160.74 36.4779L161.401 36.5019C161.444 36.5501 161.578 36.5826 161.737 36.5826C161.918 36.5826 162.1 36.5416 162.124 36.4825L162.677 36.4181C162.742 36.4421 162.839 36.4573 162.951 36.4573C163.145 36.4573 163.342 36.409 163.342 36.351L163.694 36.2075C164.359 36.2199 165.026 36.2169 165.687 36.1974C166.742 36.0621 167.602 35.9853 167.602 35.9853C167.287 36.0427 166.974 36.0915 166.778 36.1492C166.581 36.1971 166.399 36.2487 166.232 36.3031C165.945 36.3541 165.782 36.4378 165.801 36.5249C165.83 36.5799 165.91 36.6327 166.033 36.6788C166.23 36.7365 166.505 36.7659 166.505 36.7659L166.936 36.8622C166.583 36.9298 165.801 36.9772 165.801 36.9772C165.37 37.0167 164.786 36.949 164.786 36.949C163.418 36.8722 162.95 37.0258 162.95 37.0258C162.675 37.1025 162.167 37.1129 162.167 37.1129L162.401 37.1997C161.892 37.2382 161.621 37.19 161.621 37.19C161.581 37.0261 161.933 36.8625 161.933 36.8625C161.776 36.6027 159.586 36.6503 159.586 36.6503L159.041 36.5243L158.923 36.4952L157.673 36.2063C157.673 36.2931 157.517 36.4184 157.324 36.5246C157.166 36.6108 156.97 36.6882 156.97 36.6882L156.502 36.63C156.591 36.5981 156.656 36.5623 156.696 36.5246C157.085 36.2931 157.359 35.9656 157.359 35.9656C157.593 35.9656 157.792 35.9756 157.945 35.985C158.064 36.0041 158.143 36.0141 158.143 36.0141C158.234 36.0247 158.332 36.0351 158.439 36.0454L158.87 36.1962C158.83 36.2141 158.809 36.2342 158.809 36.2545C158.807 36.3122 158.923 36.3507 159.12 36.3507ZM163.483 36.2008L163.255 36.2806C163.191 36.2536 163.076 36.2366 162.95 36.2354C162.753 36.2354 162.597 36.283 162.597 36.3507C162.597 36.3598 162.6 36.3692 162.61 36.3774L162.111 36.4348C162.058 36.3896 161.898 36.3501 161.737 36.3501C161.545 36.3501 161.387 36.4078 161.387 36.4655L160.793 36.4403C160.799 36.433 160.801 36.4254 160.801 36.4181C160.801 36.3604 160.642 36.3019 160.449 36.3019C160.301 36.3019 160.181 36.334 160.128 36.3744L159.438 36.2976C159.461 36.284 159.472 36.2694 159.471 36.2545C159.471 36.2063 159.315 36.1586 159.118 36.1586C159.087 36.1583 159.056 36.1595 159.028 36.1625L158.843 36.0809H158.841C159.836 36.161 161.07 36.2163 161.07 36.2163H161.93L162.205 36.11C162.56 36.1589 163.019 36.1868 163.483 36.2008ZM158.852 34.556C158.884 34.5657 158.913 34.5748 158.945 34.583L158.896 34.6049C158.87 34.6006 158.839 34.5982 158.809 34.5976C158.652 34.5976 158.534 34.6361 158.534 34.675L158.497 34.6653L158.182 34.5785L158.067 34.5496L157.363 34.3666C156.542 34.0971 155.292 34.3666 155.292 34.3666L155.098 34.3281C155.76 34.2316 155.177 34.1065 155.177 34.1065L156.465 33.2876L156.112 33.1817C156.74 32.8636 155.411 32.8542 155.411 32.8542C155.018 32.5652 154.315 32.7003 154.315 32.7003C154.083 32.4207 153.221 32.5652 153.221 32.5652C152.909 32.3728 152.166 32.4881 152.166 32.4881L152.202 32.0353L151.345 32.0447L150.405 32.0353L150.484 32.4975C149.548 32.3822 149.388 32.6132 149.388 32.6132C148.296 32.459 148.296 32.7577 148.296 32.7577C147.396 32.69 147.435 32.9021 147.435 32.9021C146.225 32.931 146.381 33.1911 146.381 33.1911L147.317 33.9808C147.084 34.1253 144.31 34.9633 144.31 34.9633L143.136 34.8768L143.058 34.8289C143.331 34.8674 143.527 34.848 143.527 34.848C143.411 34.7515 143.565 34.559 143.565 34.559C143.918 34.1836 143.293 34.0485 143.293 34.0485C143.331 33.8943 142.901 33.7116 142.901 33.7116C143.487 33.5286 142.628 33.3456 142.628 33.3456L142.51 33.297L142.471 32.9021C142.315 32.9021 142.236 32.8539 142.236 32.8539C142.002 32.69 141.572 32.7962 141.572 32.7962C141.26 32.6232 140.751 32.7577 140.751 32.7577C140.32 32.6132 139.89 32.7577 139.89 32.7577L139.539 32.4781L138.367 32.5935L138.759 32.9018C137.898 32.8533 138.172 33.0654 138.172 33.0654C137.429 33.0751 137.781 33.2387 137.781 33.2387C137.078 33.2582 137.351 33.4509 137.351 33.4509L138.132 33.7687C137.506 33.9417 138.094 34.0576 138.094 34.0576C138.289 34.1444 138.525 34.1444 138.525 34.1444C138.172 34.4049 138.642 34.6744 138.642 34.6744C138.133 34.8189 137.391 34.9342 136.727 35.0207C135.75 35.1366 134.89 35.1943 134.89 35.1943C133.365 35.2814 130.357 35.5218 130.357 35.5218C129.301 35.5889 127.622 35.7142 127.622 35.7142C125.511 35.8687 124.964 35.7051 124.964 35.7051C124.456 35.6274 124.847 35.4253 124.847 35.4253C125.355 35.1749 126.411 35.1169 126.411 35.1169C127.154 35.2332 127.426 35.2999 127.426 35.2999C127.895 35.4162 128.716 35.4062 128.716 35.4062L128.756 35.3676C129.107 35.3776 129.342 35.3485 129.342 35.3485C129.107 35.2908 129.107 35.2232 129.107 35.2232C129.107 35.1752 128.833 35.0984 128.833 35.0984L134.265 35.0404C134.462 35.0316 134.617 35.0316 134.774 35.0213C136.648 34.9348 137.079 34.8289 137.079 34.8289C138.368 34.5779 137.822 34.1639 137.822 34.1639C137.117 33.7596 135.75 33.7398 135.75 33.7398C134.695 33.6725 133.914 33.7113 133.914 33.7113C133.328 33.721 132.118 33.6439 132.118 33.6439C132.077 33.7013 132.586 33.8843 132.586 33.8843C132.231 33.8922 131.88 33.8646 131.609 33.8075C130.983 33.6631 129.967 33.7304 129.967 33.7304C130.124 33.8075 131.063 34.0006 131.063 34.0006C130.515 34.01 129.032 33.8561 129.032 33.8561C129.305 34.1742 130.79 34.3955 130.79 34.3955C132.549 34.5785 134.072 34.386 134.072 34.386C134.814 34.2707 135.557 34.2027 135.557 34.2027C135.668 34.1903 135.788 34.1839 135.91 34.1839C136.292 34.1839 136.628 34.2473 136.729 34.3378C136.652 34.6653 135.674 34.675 135.674 34.675C132.86 34.8192 129.108 34.7229 129.108 34.7229C129.381 34.6361 129.421 34.4146 129.421 34.4146L129.108 34.434C127.468 34.3955 127.037 34.4823 127.037 34.4823C126.451 34.5691 126.177 34.7521 126.177 34.7521C125.435 34.8292 124.848 34.9251 124.417 35.0216C123.324 35.2823 123.207 35.5707 123.207 35.5707C123.128 35.9176 123.91 35.9662 123.91 35.9662C123.207 36.3025 124.261 36.4281 124.261 36.4281C124.73 36.3419 124.925 36.2451 124.925 36.2451C125.863 36.0724 128.599 35.9273 128.599 35.9273C128.051 36.0339 127.737 36.351 127.737 36.351C127.269 36.3896 126.487 36.3219 126.487 36.3219C126.058 36.3128 126.058 36.3996 126.058 36.3996L125.862 36.5146L125.589 36.7271C123.908 36.7077 124.143 36.9481 124.143 36.9481L123.908 37.5933C124.299 37.834 124.924 37.7958 124.924 37.7958V37.5551H125.353C125.862 37.8149 126.644 37.8729 126.644 37.8729H126.879C127.151 37.8538 127.269 37.9506 127.269 37.9506L127.543 37.9594L127.581 37.7958L127.893 37.7867C128.09 37.8061 128.205 37.8829 128.205 37.8829H128.439C128.517 37.844 128.558 37.7384 128.558 37.7384C128.87 37.6899 128.79 37.5172 128.79 37.5172C129.417 37.488 130.081 37.5463 130.081 37.5463L130.043 37.6899C130.511 37.8829 131.098 37.9117 131.098 37.9117C131.49 37.9403 132.074 37.9594 132.779 37.9694C133.991 37.9885 135.514 37.9785 136.921 37.9694C138.448 37.9503 139.973 37.9214 141.494 37.8823C141.65 37.94 141.728 37.9309 141.728 37.9309C142.391 37.9882 143.134 37.8146 143.134 37.8146L142.901 37.9309C143.409 37.9208 143.956 37.834 143.956 37.834C144.092 37.8799 144.284 37.9136 144.503 37.9309L144.621 37.9017L144.778 37.9591C145.089 37.9205 145.285 37.7864 145.285 37.7864C145.639 37.8632 146.146 37.8437 146.146 37.8437L146.304 37.9014L146.418 37.8528C146.651 37.8923 147.082 37.94 147.082 37.94C147.553 37.7955 147.358 37.5839 147.358 37.5839L147.475 37.6316L147.59 37.5162C147.823 37.5736 148.218 37.5736 148.218 37.5736C147.475 37.6504 147.903 37.7861 147.903 37.7861C147.996 37.824 148.132 37.8541 148.296 37.872C148.552 37.8644 148.791 37.9069 148.843 37.9691C149.429 38.0368 149.781 37.882 149.781 37.882L149.86 37.7667C149.742 37.699 149.742 37.593 149.742 37.593L149.86 37.7181L150.053 37.7472L151.382 38.007L152.517 37.7758C153.142 37.882 154.002 37.882 154.002 37.882C154.314 37.882 154.081 37.7861 154.081 37.7861C155.098 37.9882 156.62 37.94 156.62 37.94C156.853 37.8923 156.698 37.8632 156.698 37.8632C156.974 37.834 157.442 37.9309 157.442 37.9309C157.831 37.9976 158.417 37.94 158.417 37.94C158.38 37.8923 158.184 37.8823 158.184 37.8823C158.459 37.8823 158.303 37.7864 158.303 37.7864C158.574 37.7955 158.81 37.8726 158.81 37.8726C159.043 37.95 159.475 37.9309 159.475 37.9309L159.512 37.8823C159.786 37.9309 160.408 37.94 160.408 37.94C160.568 37.9014 160.449 37.8437 160.449 37.8437C163.263 38.0559 167.442 38.0164 167.442 38.0164C172.877 38.0076 173.619 37.7472 173.619 37.7472C173.815 37.6889 173.697 37.6222 173.697 37.6222V37.5454C173.971 37.5059 174.401 37.5357 174.401 37.5357L174.008 37.7378L173.894 37.8055C174.83 38.0653 176.236 37.7764 176.236 37.7764V37.6896C176.512 37.661 176.744 37.5839 176.744 37.5839L177.372 37.6225C177.45 37.7096 177.215 37.8055 177.215 37.8055C178.191 37.8726 178.541 37.6225 178.541 37.6225L178.036 36.9766C177.254 36.7553 175.847 36.7936 175.847 36.7936L175.807 36.6297C175.728 36.5723 175.458 36.5338 175.221 36.5243L174.918 36.4976L174.635 36.5243C174.203 36.5334 173.577 36.5334 173.577 36.5334V36.5243L173.656 36.3022V36.0524L173.577 35.9653L174.401 35.9944C175.025 36.0612 176.472 36.0612 176.472 36.0612C176.94 36.1097 176.94 36.2251 176.94 36.2251L176.784 36.3604C178.113 36.3313 177.956 35.9653 177.956 35.9653C178.892 35.7722 178.658 35.2523 178.658 35.2523C178.54 35.1272 178.346 35.0498 178.226 35.0207L178.19 35.0119C178.19 34.6838 176.86 34.5393 176.86 34.5393C176.627 34.4911 176.353 34.4911 176.353 34.4911C176.041 34.4722 175.61 34.3466 175.61 34.3466C175.103 34.5776 175.531 34.7509 175.531 34.7509C174.749 34.7123 170.84 34.9051 170.84 34.9051C169.904 34.963 168.341 34.8377 168.341 34.8377C167.362 34.7026 167.521 34.5296 167.521 34.5296C167.714 34.2501 168.653 34.2886 168.653 34.2886H168.927C169.749 34.2501 170.335 34.3272 170.335 34.3272C171.975 34.5196 174.905 34.3272 174.905 34.3272C176.311 34.1921 176.704 33.7395 176.704 33.7395C175.765 33.9517 174.868 33.9132 174.868 33.9132C174.669 33.9229 174.474 33.9359 174.282 33.9517C174.438 33.7878 175.217 33.7107 175.217 33.7107C174.203 33.6048 173.109 33.7878 173.109 33.7878C172.562 33.9323 171.35 33.9805 171.35 33.9805C172.246 33.8937 172.718 33.653 172.718 33.653C172.131 33.7395 171.077 33.7201 171.077 33.7201C169.474 33.643 167.716 33.9994 167.716 33.9994C166.112 34.3654 166.894 34.77 166.894 34.77C167.091 34.8853 167.559 34.9724 168.067 35.0204C168.81 35.1075 169.589 35.1266 169.589 35.1266C171.271 35.1749 174.711 35.0784 174.711 35.0784C175.023 35.0589 175.375 35.0589 175.375 35.0589C174.748 35.1749 174.633 35.435 174.633 35.435C175.257 35.3776 175.725 35.3776 175.725 35.3776L175.688 35.4162C176.432 35.3871 177.053 35.4162 177.053 35.4162C177.446 35.4253 177.525 35.3394 177.525 35.3394C177.993 35.5121 177.053 35.7054 177.053 35.7054C176.508 35.8399 175.297 35.7337 175.297 35.7337C174.633 35.6569 172.911 35.6274 172.911 35.6274C172.599 35.5315 169.043 35.3582 169.043 35.3582C168.846 35.2711 168.496 35.3097 168.496 35.3097L168.182 35.2999C167.871 35.1169 167.168 35.2232 167.168 35.2232C166.66 35.204 165.839 35.0887 165.368 35.0207C165.135 34.9922 165.018 34.9633 165.018 34.9633C166.893 34.4528 166.775 33.9041 166.775 33.9041C166.542 33.114 163.924 32.9889 163.924 32.9889C163.534 32.7577 162.284 32.7385 162.284 32.7385L162.205 32.7868L162.321 32.8542C162.284 32.9024 162.517 32.9892 162.517 32.9892L162.009 33.0178L158.843 32.5652C158.064 32.5173 158.375 32.6806 158.375 32.6806L158.532 32.7385L161.268 33.2682C160.993 33.4029 160.057 33.5766 160.057 33.5766L159.704 33.5957L159.273 33.7113L159.314 33.8655C159.117 33.9041 158.686 33.9041 158.686 33.9041L158.649 34.0006C158.921 34.0971 159.703 34.0971 159.703 34.0971L160.327 34.251C160.524 34.2801 160.68 34.2416 160.68 34.2416L161.226 34.0874L161.969 34.0009C162.166 34.0297 162.519 34.0394 162.519 34.0394C162.01 34.088 161.465 34.2707 161.465 34.2707C161.034 34.2416 160.328 34.2801 160.328 34.2801L160.251 34.386L160.229 34.4115L160.057 34.386C159.783 34.1068 158.922 34.2801 158.922 34.2801C158.636 34.356 158.607 34.4719 158.852 34.556ZM158.869 34.7576C158.964 34.7469 159.04 34.7138 159.04 34.6744C159.04 34.6632 159.03 34.6522 159.011 34.6422L159.064 34.6097C159.187 34.6343 159.339 34.6474 159.497 34.6474C159.9 34.644 160.056 34.5008 160.056 34.5008H160.153L160.056 34.6161C159.663 34.6741 159.314 34.8665 159.314 34.8665L158.869 34.7576ZM159.114 34.4823C158.905 34.3751 159.353 34.3278 159.353 34.3278C159.9 34.3083 159.784 34.4817 159.784 34.4817C159.637 34.5269 159.519 34.5439 159.422 34.5457C159.209 34.5499 159.117 34.4832 159.114 34.4823ZM137.781 36.5143C137.468 36.582 136.92 36.6782 136.217 36.6879L135.904 36.8124L136.647 36.8609L136.803 36.8801L137.468 36.9286C137.468 36.9286 137.506 36.8224 138.015 36.8415C138.015 36.8415 138.367 36.6099 139.773 36.6876C139.773 36.6876 140.009 36.6682 140.32 36.7068C140.438 36.7262 140.555 36.7456 140.671 36.7738L140.515 36.6488C140.515 36.6488 140.671 36.5911 141.061 36.6099C141.061 36.6099 140.905 36.5714 140.788 36.514C140.623 36.4576 140.528 36.3905 140.515 36.321C140.502 36.2518 140.983 36.2733 141.453 36.2928V36.1865H141.725L141.218 36.1097C141.218 36.1097 139.927 36.4655 137.504 36.2928C137.025 36.2594 136.565 36.2108 136.137 36.1483C135.708 36.0858 136.607 36.4372 138.092 36.4275C138.094 36.4275 137.977 36.4661 137.781 36.5143ZM131.49 36.5143C132.27 36.572 133.64 36.6014 133.64 36.6014C133.521 36.6297 133.404 36.6588 133.287 36.6782C132.859 36.765 132.507 36.7845 132.507 36.7845C132.273 36.8804 132.391 37.0546 132.391 37.0546C132.507 37.0931 132.859 37.1214 133.172 37.1505C133.563 37.1891 133.952 37.2182 133.952 37.2182C133.476 37.2422 132.984 37.2422 132.507 37.2182C132.076 37.2085 131.805 37.179 131.805 37.179L131.999 37.0828C131.843 36.8321 130.318 36.8036 130.318 36.8036L130.397 36.6882C130.592 36.63 130.789 36.5632 130.866 36.5146C130.916 36.497 130.954 36.4776 130.983 36.4573C131.061 36.4767 131.257 36.4958 131.453 36.5146H131.49V36.5143ZM159.316 37.3138C159.198 37.3332 159.12 37.3526 159.12 37.3906C159.12 37.3906 159.198 37.4483 159.706 37.4868C159.706 37.4868 159.784 37.3812 159.666 37.2655C159.665 37.2655 159.471 37.2847 159.316 37.3138ZM141.494 37.1399L141.767 37.1208C141.767 37.1208 141.494 37.0631 141.455 37.0245C141.455 37.0245 141.455 36.9478 141.105 36.8801L141.143 36.9478V37.044L141.26 37.0731V37.1499L141.494 37.1399ZM142.745 37.4777L142.784 37.6222L143.293 37.4868C143.21 37.4871 143.134 37.4762 143.096 37.4583C142.901 37.4197 142.784 37.3624 142.784 37.3624L142.745 37.4777ZM144.511 36.518C144.809 36.5098 145.057 36.5146 145.198 36.5565C145.194 36.4952 145.304 36.4336 145.676 36.4181C145.676 36.4181 144.854 36.3793 144.112 36.3116C143.644 36.273 143.175 36.2248 143.018 36.1671L142.666 36.1962L142.391 36.2248V36.2539C142.391 36.2539 143.134 36.2821 143.525 36.3601V36.3207C143.525 36.321 144.236 36.3541 144.511 36.518ZM146.573 36.8995C146.573 36.8801 146.613 36.8609 146.613 36.8318L147.199 36.9863C147.199 36.9863 147.313 37.0825 147.081 37.1402C147.081 37.1402 146.966 37.112 146.81 37.0925C146.711 37.0804 146.604 37.074 146.494 37.0734L146.458 36.9481C146.458 36.9478 146.536 36.9286 146.573 36.8995ZM99.0534 31.6401C99.0534 31.6401 104.877 32.3722 105.579 32.5167C106.322 32.6611 105.931 32.7577 105.931 32.7577C105.931 32.7577 105.658 32.8539 104.993 32.8924C104.327 32.9209 104.525 33.056 104.525 33.056L104.447 36.4758C107.183 37.1402 109.762 36.7842 109.762 36.7842C110.74 36.7074 110.623 36.4952 110.623 36.4952C110.623 36.4952 110.819 33.2782 110.74 33.172C110.661 33.0566 110.272 33.0566 110.272 33.0566C110.272 33.0566 107.849 32.6806 107.458 32.6135C107.026 32.5464 107.496 32.4405 107.496 32.4405C107.496 32.4405 111.599 31.7372 112.187 31.6025C112.773 31.4771 113.242 31.5539 113.242 31.5539C113.242 31.5539 120.003 32.4884 120.784 32.6329C121.565 32.7774 121.175 32.8253 121.175 32.8253L119.26 33.2973C118.869 33.3938 119.064 33.4803 119.064 33.4803L118.986 36.64C118.478 37.4489 113.319 37.5651 113.319 37.5651C107.105 37.5842 104.214 36.9292 104.214 36.9292C101.751 36.5535 98.8985 36.8133 98.8985 36.8133C95.2651 37.1214 94.9904 37.6996 94.9904 37.6996C94.8721 38.1142 96.7488 38.3163 96.7488 38.3163C99.055 38.6824 102.415 38.4508 102.415 38.4508C105.268 38.2104 109.684 37.844 109.684 37.844C112.458 37.6996 114.646 37.8149 114.646 37.8149C117.147 37.9506 118.125 38.2395 118.125 38.2395C119.727 38.6438 119.61 39.1638 119.61 39.1638C119.727 40.301 114.06 40.6859 114.06 40.6859C111.521 40.8113 110.818 40.6668 110.818 40.6668C109.019 40.57 110.934 40.5223 110.934 40.5223C110.934 40.5223 107.651 40.57 111.208 40.5314C114.764 40.5029 115.156 40.0795 115.156 40.0795C116.446 39.5107 114.453 39.4145 114.453 39.4145C111.717 39.3185 108.748 39.8673 108.748 39.8673C102.104 40.5991 97.0635 39.9924 97.0635 39.9924C91.9047 39.501 92.5691 38.557 92.5691 38.557C92.6858 37.3338 95.8128 36.8524 95.8128 36.8524L95.618 33.0666C95.4615 32.9701 95.0702 32.9416 95.0702 32.9416C95.0702 32.9416 92.9205 32.7294 92.5691 32.6141C92.2561 32.4985 92.7639 32.4502 92.7639 32.4502L97.7278 31.641C98.3108 31.4383 99.0534 31.6401 99.0534 31.6401ZM2.75935 31.0622C2.01668 30.9371 2.83767 30.8698 2.83767 30.8698L10.3026 29.5209H30.0368C34.2963 29.6171 33.9449 30.9657 33.9449 30.9657L33.8666 35.9358C26.9495 36.2633 23.6274 37.7087 23.6274 37.7087C17.1782 37.2561 6.11966 37.6604 6.11966 37.6604C5.14228 37.6795 5.80664 37.4965 5.80664 37.4965C9.63662 35.8396 16.9834 35.8882 16.9834 35.8882C17.4578 35.8857 17.9225 35.8888 18.3744 35.8961L18.4129 31.1126L2.75935 31.0622ZM12.6073 31.3317C14.0526 31.1681 13.7795 31.4091 13.7795 31.4091V34.1733C13.663 35.3388 9.94964 35.975 9.94964 35.975C8.85565 36.3413 4.67434 36.7647 4.67434 36.7647C3.2289 36.8995 4.08818 36.5526 4.08818 36.5526C5.45531 36.0524 5.45531 35.6951 5.45531 35.6951V32.3722C5.45531 32.276 5.61183 32.2374 5.61183 32.2374L12.6073 31.3317ZM19.0357 35.9097C22.4519 35.9944 24.9579 36.2928 24.9579 36.2928L24.9068 34.1557L24.8541 34.1654C24.8461 34.163 22.1118 33.2733 19.0485 34.1982L19.0357 35.9097ZM24.9004 33.939L24.8796 33.0427C23.8335 33.284 21.3946 33.6898 19.0564 32.9386L19.0485 33.9532C21.6231 33.3092 23.9389 33.7104 24.9004 33.939ZM24.8732 32.8089L24.8381 31.3126C25.1112 31.0622 23.7056 31.1296 23.7056 31.1296L19.0724 31.1147L19.0612 32.6496C21.6822 33.7201 24.6048 32.8897 24.8732 32.8089ZM78.8082 30.4652C78.8082 30.4652 87.4056 29.7813 88.4996 29.714C89.6319 29.6466 89.5553 29.7813 89.5553 29.7813C89.5553 29.7813 89.3221 35.8111 89.517 36.0232C89.7119 36.2354 90.1031 36.1777 90.1031 36.1777C90.1031 36.1777 92.0964 36.5246 92.526 36.5723C92.9956 36.6206 92.7607 36.7359 92.7607 36.7359L87.9151 37.661C87.9151 37.661 80.0204 36.8036 79.396 36.7077C78.615 36.5723 79.1228 36.4955 79.1228 36.4955L80.53 36.1486C80.53 36.1486 80.7631 31.217 80.3735 30.9569C79.9821 30.6965 78.7316 30.5905 78.7316 30.5905C78.4569 30.4843 78.8082 30.4652 78.8082 30.4652ZM69.1568 31.4862C69.4299 31.6498 70.1327 31.6213 70.1327 31.6213C73.2598 31.3129 74.5104 30.5808 74.5104 30.5808C75.2914 29.8584 73.4547 29.666 73.4547 29.666C71.8129 29.425 70.6022 29.6174 70.6022 29.6174C68.7255 29.8678 68.2177 30.3498 68.2177 30.3498C67.7498 30.9854 69.1568 31.4862 69.1568 31.4862ZM67.7498 31.8137C67.7498 31.8137 62.6693 32.5843 62.2779 32.7288C61.8867 32.8733 62.2013 32.9413 62.2013 32.9413C62.2013 32.9413 64.3893 33.2782 64.9755 33.3359C65.5999 33.3841 65.3652 33.4612 65.3652 33.4612L65.5218 35.9656C65.5999 36.0332 65.5218 36.2063 65.5218 36.2063C65.5218 36.2063 64.6609 36.3799 64.1929 36.4761C63.6467 36.5914 64.0747 36.7077 64.0747 36.7077L71.9311 37.6804C71.9311 37.6804 77.2447 36.7365 77.7142 36.6882C78.1822 36.64 77.7142 36.5438 77.7142 36.5438C77.7142 36.5438 75.408 36.2163 75.0182 36.168C74.6285 36.1194 74.785 36.0235 74.785 36.0235C74.785 36.0235 74.472 33.5474 74.7068 33.3356C74.9016 33.1334 75.1748 33.2005 75.1748 33.2005C75.1748 33.2005 75.8775 33.1525 76.5036 33.056C77.0898 32.9598 76.5435 32.873 76.5435 32.873C76.5435 32.873 69.2351 31.9294 68.6889 31.8137C68.1394 31.6981 67.7498 31.8137 67.7498 31.8137ZM35.3712 35.9844C35.352 35.9653 35.9764 37.4392 43.6363 37.6801L48.7167 36.6691C48.7167 36.6691 48.9899 36.5529 49.3811 36.6491L57.9785 37.6801L63.2154 36.6691C63.2154 36.6691 63.4502 36.5529 63.0589 36.4375L59.4239 35.8399V33.3835C59.4239 33.3835 59.3856 33.2682 59.697 33.2491L61.104 32.9698C61.104 32.9698 61.3388 32.8733 60.8709 32.7482C60.4397 32.6135 51.8822 31.5733 51.8822 31.5733C51.8822 31.5733 51.5692 31.458 50.7866 31.5924C50.7866 31.5924 41.4467 32.5173 37.7732 33.7016C37.7748 33.7016 34.8441 34.1639 35.3712 35.9844ZM42.6988 35.1949C42.9335 35.3002 41.1351 34.5685 41.996 33.769C41.996 33.769 42.1142 33.066 45.4346 32.7097L49.929 33.4321L49.8508 36.283C49.8508 36.283 49.2646 36.5243 47.8192 36.3604C47.8192 36.3604 44.1058 35.9079 42.6988 35.1949ZM258.07 31.8905C258.07 31.8905 252.992 32.6514 252.598 32.8056C252.209 32.9501 252.52 33.0175 252.52 33.0175C252.52 33.0175 254.71 33.3544 255.296 33.4029C255.92 33.4515 255.686 33.5377 255.686 33.5377L255.843 36.042C255.92 36.1097 255.843 36.2824 255.843 36.2824C255.843 36.2824 254.981 36.4463 254.514 36.5432C253.967 36.6585 254.398 36.7738 254.398 36.7738L262.253 37.7563C262.253 37.7563 267.568 36.8124 268.036 36.7544C268.504 36.7068 268.036 36.6099 268.036 36.6099C268.036 36.6099 265.768 36.2824 265.34 36.2348C264.948 36.1865 265.104 36.0903 265.104 36.0903C265.104 36.0903 264.793 33.6148 265.025 33.4029C265.222 33.2105 265.497 33.2682 265.497 33.2682C265.497 33.2682 266.198 33.2199 266.826 33.1237C267.412 33.0275 266.863 32.9507 266.863 32.9507C266.863 32.9507 259.554 32.0064 259.007 31.8908C258.5 31.7752 258.07 31.8905 258.07 31.8905ZM180.377 31.0716C179.167 30.908 180.027 30.8306 180.027 30.8306L186.123 29.8675C186.434 29.8002 186.709 29.8967 186.709 29.8967L192.259 30.6961C192.259 30.6961 199.761 29.7137 200.27 29.6369C200.581 29.5883 200.856 29.656 200.856 29.656L207.189 30.5228L213.558 29.5403C214.26 29.3959 214.456 29.4921 214.456 29.4921L221.92 30.5711C222.545 30.6673 222.27 30.6961 222.27 30.6961V35.686C222.545 36.3019 224.657 36.5435 224.657 36.5435C225.243 36.6588 224.968 36.7459 224.968 36.7459L219.221 37.7569C214.26 37.3423 213.792 36.3507 213.792 36.3507V31.5821C213.674 31.4185 213.206 31.38 213.206 31.38L209.369 30.898L209.398 33.0172H213.518L209.417 34.4744L209.442 36.2287L212.309 36.7068C212.698 36.8224 212.076 36.8415 212.076 36.8415L206.134 37.7563L197.302 36.6005C196.482 36.4652 197.106 36.3884 197.106 36.3884L199.021 36.09V34.5581H194.816L194.832 36.5246L196.249 36.7456C196.68 36.8609 196.17 36.9377 196.17 36.9377L190.269 37.7563L182.57 36.7544C181.907 36.6482 182.607 36.5626 182.607 36.5626L184.797 36.2542V31.8425L180.575 31.0913L180.377 31.0716ZM208.839 30.8385C207.673 30.7493 207.853 30.9277 207.853 30.9277L207.931 32.8636V33.0178H208.871L208.839 30.8385ZM208.89 34.5587H207.931V35.975C207.968 36.0135 208.439 36.0612 208.439 36.0612L208.91 36.1404L208.89 34.5587ZM194.814 34.2847L198.277 33.0175H199.02V31.5821C198.904 31.5053 198.473 31.4282 198.473 31.4282L194.792 30.9563L194.814 34.2847ZM194.263 30.9253C193.184 30.9311 193.121 31.1108 193.121 31.1108L193.04 36.2545C193.04 36.283 193.392 36.3022 193.392 36.3022L194.3 36.4436L194.263 30.9253ZM225.7 35.9844C225.68 35.9653 226.304 37.4392 233.966 37.6801L239.045 36.6691C239.045 36.6691 239.319 36.5529 239.71 36.6491L248.307 37.6801L253.543 36.6691C253.543 36.6691 253.777 36.5529 253.387 36.4375L249.754 35.8399V33.3835C249.754 33.3835 249.717 33.2682 250.029 33.2491L251.435 32.9698C251.435 32.9698 251.669 32.8733 251.203 32.7482C250.772 32.6135 242.212 31.5733 242.212 31.5733C242.212 31.5733 241.9 31.458 241.117 31.5924C241.117 31.5924 231.777 32.5173 228.103 33.7016C228.101 33.7016 225.173 34.1639 225.7 35.9844ZM233.027 35.1949C233.261 35.3002 231.464 34.5685 232.326 33.769C232.326 33.769 232.441 33.066 235.763 32.7097L240.258 33.4321L240.179 36.283C240.179 36.283 239.593 36.5243 238.146 36.3604C238.146 36.3604 234.434 35.9079 233.027 35.1949ZM269.13 30.4652C269.13 30.4652 277.686 29.7813 278.822 29.714C279.914 29.6466 279.876 29.7813 279.876 29.7813C279.876 29.7813 279.642 35.8788 279.836 36.0909C280.033 36.3022 280.422 36.2545 280.422 36.2545C280.422 36.2545 282.415 36.6014 282.846 36.6491C283.314 36.6973 283.079 36.8127 283.079 36.8127L278.236 37.7378C278.236 37.7378 270.34 36.8804 269.716 36.7747C268.934 36.6494 269.441 36.5632 269.441 36.5632L270.849 36.2257C270.849 36.2257 271.081 31.2076 270.692 30.9472C270.302 30.687 269.052 30.5911 269.052 30.5911C268.779 30.4746 269.13 30.4652 269.13 30.4652ZM259.478 31.5633C259.752 31.7272 260.453 31.6981 260.453 31.6981C263.582 31.38 264.832 30.6482 264.832 30.6482C265.611 29.9352 263.775 29.7428 263.775 29.7428C262.135 29.4924 260.925 29.6942 260.925 29.6942C259.045 29.9446 258.542 30.4266 258.542 30.4266C258.07 31.0622 259.478 31.5633 259.478 31.5633Z" fill="black"/>
<path fill-rule="evenodd" clip-rule="evenodd" d="M138.759 32.6331L139.306 32.5657V32.6622L139.501 32.6139L139.734 32.7487L139.423 32.7584L139.62 32.8067C140.048 32.8838 139.776 32.9511 139.776 32.9511L139.579 32.9897C138.953 33.0471 139.149 32.8067 139.149 32.8067L138.953 32.8546L138.719 32.7102H139.033L138.759 32.6331Z" fill="white"/>
<path fill-rule="evenodd" clip-rule="evenodd" d="M138.172 33.2394C138.642 33.2491 138.68 33.3359 138.68 33.3359C138.718 33.1723 139.227 33.3168 139.227 33.3168C139.062 33.3292 138.913 33.3526 138.797 33.3839C138.797 33.4804 139.383 33.4804 139.383 33.4804C139.89 33.4127 139.813 33.3359 139.813 33.3359C139.89 33.2297 139.383 33.2877 139.383 33.2877L139.186 33.1817L139.499 33.1723V33.1338L139.227 33.0949L140.087 32.9893L139.969 33.0758L140.047 33.0949L140.241 33.0373L140.399 33.1914C140.007 33.1723 140.164 33.2588 140.164 33.2588C140.385 33.318 140.563 33.3235 140.692 33.3107C140.802 33.2977 140.891 33.2758 140.944 33.2491C141.18 33.1817 140.906 33.1526 140.906 33.1526C140.595 33.1811 140.555 33.2103 140.555 33.2103C140.399 33.0081 140.827 33.0464 140.827 33.0464C140.712 32.9501 140.827 32.9019 140.827 32.9019C141.141 32.9404 141.18 33.0172 141.18 33.0172C141.648 32.8919 141.725 33.0266 141.725 33.0266C141.101 33.0558 141.374 33.1423 141.374 33.1423C141.521 33.1993 141.636 33.2084 141.728 33.1942C141.925 33.1623 141.998 33.016 141.998 33.016C141.648 32.8907 140.749 32.8682 140.749 32.8809L140.709 32.9592L140.24 32.9784L140.162 32.9207L140.045 32.9113V32.8627C141.178 32.7568 142.195 32.9881 142.195 32.9881L142.234 33.3733C140.553 33.4312 138.482 33.7681 138.482 33.7681L137.661 33.4215C137.936 33.1423 138.99 32.9881 138.99 32.9881L139.146 33.0266L138.949 33.0843L139.028 33.1517L138.56 33.2482L138.169 33.1996C138.001 33.2731 137.839 33.3441 137.895 33.4215L138.169 33.566C138.717 33.6237 138.522 33.4601 138.522 33.4601C138.366 33.4115 138.169 33.5174 138.169 33.5174C137.818 33.3538 138.287 33.3632 138.287 33.3632C138.094 33.3168 138.172 33.2394 138.172 33.2394ZM125.472 36.7651C124.964 37.0926 125.236 37.5163 125.236 37.5163H124.924V36.9864C124.025 36.9381 124.416 36.8516 124.416 36.8516C124.767 36.7359 125.472 36.7651 125.472 36.7651ZM127.191 37.7379C127.386 37.8147 127.347 37.9209 127.347 37.9209C127.268 37.8441 126.955 37.8532 126.955 37.8532C126.8 37.7379 127.191 37.7379 127.191 37.7379ZM127.933 37.7379C128.129 37.7096 128.129 37.642 128.129 37.642C128.56 37.6893 128.285 37.8441 128.285 37.8441C128.208 37.7764 127.933 37.7379 127.933 37.7379ZM127.425 37.3627C128.051 37.3336 128.208 37.4781 128.208 37.4781C128.481 37.5457 128.481 37.4489 128.481 37.4489C128.128 37.1788 127.425 37.3627 127.425 37.3627ZM128.284 37.5457C128.479 37.5652 128.557 37.5266 128.557 37.5266C128.714 37.6128 128.517 37.6805 128.517 37.6805C128.479 37.6037 128.284 37.6037 128.284 37.6037V37.5457Z" fill="white"/>
<path fill-rule="evenodd" clip-rule="evenodd" d="M128.753 37.4285C128.363 37.0728 127.347 37.3132 127.347 37.3132C127.073 37.0919 127.465 36.918 127.465 36.918C128.051 36.9374 128.832 36.918 128.832 36.918C129.026 36.918 128.949 36.9472 128.949 36.9472C129.105 37.1202 128.676 37.1202 128.676 37.1202C128.988 37.1878 129.067 37.1587 129.067 37.1587C129.693 37.1778 130.239 36.8704 130.239 36.8704C130.826 36.8607 131.529 36.9857 131.529 36.9857C131.92 37.0728 131.529 37.101 131.529 37.101C130.982 37.0728 130.004 37.1205 130.004 37.1205C129.887 37.1396 129.925 37.1979 129.925 37.1979C130.004 37.2555 130.044 37.448 130.044 37.448C129.536 37.4191 128.753 37.4285 128.753 37.4285ZM131.333 36.3689C131.489 36.2245 132.662 36.0706 132.662 36.0706C133.248 36.0129 134.107 35.9644 134.107 35.9644C135.124 35.9741 135.828 36.2433 135.828 36.2433L135.436 36.3201L135.592 36.3492C135.946 36.2624 136.335 36.3592 136.335 36.3592C136.686 36.4066 137.545 36.4843 137.545 36.4843C137.154 36.6279 135.943 36.5705 135.943 36.5705C135.982 36.7253 135.28 36.8303 135.28 36.8303C135.749 36.9271 137.545 37.0142 137.545 37.0142C138.21 36.7826 138.912 36.9465 138.912 36.9465C139.07 36.9748 139.266 37.023 139.266 37.023C138.874 37.0716 138.991 37.1966 138.991 37.1966C138.21 37.2355 136.022 37.2355 136.022 37.2355C133.872 37.1578 132.779 37.023 132.779 37.023C132.583 36.9942 132.701 36.9553 132.701 36.9553L132.662 36.898C132.623 36.8303 132.859 36.8406 132.859 36.8406C133.639 36.8115 134.303 36.5999 134.303 36.5999C134.5 36.4846 134.069 36.504 134.069 36.504C132.74 36.4849 131.333 36.3689 131.333 36.3689Z" fill="white"/>
<path fill-rule="evenodd" clip-rule="evenodd" d="M138.289 36.8422C138.798 36.6695 139.501 36.7848 139.501 36.7848C139.658 36.8131 139.814 36.9002 139.814 36.9002C139.501 36.9002 139.422 36.9678 139.422 36.9678C139.149 36.8322 138.289 36.8422 138.289 36.8422ZM139.228 37.1788C139.149 37.102 139.424 37.0735 139.424 37.0735C139.58 37.1017 139.735 37.1694 139.735 37.1694C139.579 37.1788 139.228 37.1788 139.228 37.1788ZM139.501 37.0158C139.852 37.0544 139.892 37.1597 139.892 37.1597L140.165 37.1506C140.244 37.0061 139.931 36.9293 139.931 36.9293C139.579 36.9384 139.501 37.0158 139.501 37.0158ZM139.892 36.7554C140.089 36.7845 140.048 36.8804 140.048 36.8804C140.321 36.929 140.4 37.0249 140.4 37.0249C140.596 36.9958 140.907 37.0058 140.907 37.0058C140.751 36.736 139.892 36.7554 139.892 36.7554ZM140.478 37.0635L140.517 37.1402L140.946 37.1311C140.985 37.0738 140.868 37.0352 140.868 37.0352C140.634 37.0249 140.478 37.0635 140.478 37.0635ZM143.214 34.9831C143.293 35.0599 143.214 35.1953 143.214 35.1953C143.096 35.2527 142.784 35.368 142.784 35.368L143.331 35.5034L144.661 35.5125C144.817 35.3971 145.597 35.2044 145.597 35.2044C146.105 34.6265 147.393 34.3855 147.393 34.3855V34.3375C147.082 34.3181 147.044 34.241 147.044 34.241C147.039 34.1803 147.156 34.1227 147.355 34.0871C147.512 34.1257 147.512 34.058 147.512 34.058C147.434 34.0386 147.316 34.0386 147.316 34.0386L147.237 34.0771L146.887 34.2119C146.731 34.3369 145.752 34.703 145.752 34.703C145.44 34.7804 144.423 35.0593 144.423 35.0593L144.267 35.0402C143.918 35.0508 143.214 34.9831 143.214 34.9831ZM145.482 36.6109L145.753 36.4956L145.95 36.5053C146.028 36.64 146.381 36.736 146.381 36.736L146.342 36.929C146.226 36.8613 145.951 36.8613 145.951 36.8613C146.146 36.6883 145.482 36.6109 145.482 36.6109ZM143.72 37.5063H143.448L142.783 37.6893C142.743 37.7959 142.197 37.8441 142.197 37.8441C143.252 37.825 143.408 37.7288 143.408 37.7288C143.354 37.7789 143.275 37.8271 143.174 37.8723C143.837 37.7864 143.682 37.7482 143.682 37.7482C143.8 37.6514 143.761 37.642 143.761 37.642C143.8 37.5934 143.837 37.5843 143.837 37.5843C143.918 37.5063 143.72 37.5063 143.72 37.5063ZM144.19 37.584C144.621 37.6031 144.854 37.5931 144.854 37.5931C145.403 37.7182 144.817 37.9012 144.817 37.9012C144.661 37.8141 144.74 37.7761 144.74 37.7761C144.817 37.7285 144.661 37.6699 144.661 37.6699C144.424 37.7473 144.58 37.8821 144.58 37.8821C144.112 37.8335 143.997 37.7182 143.997 37.7182C143.997 37.642 144.19 37.584 144.19 37.584ZM148.566 36.4664L148.919 36.3994C149.075 36.4956 148.805 36.5915 148.805 36.5915C148.757 36.5466 148.675 36.5041 148.566 36.4664ZM148.02 36.5915C148.138 36.5633 148.295 36.5053 148.295 36.5053C148.527 36.5915 148.409 36.7077 148.409 36.7077C148.216 36.6786 148.295 36.6977 148.295 36.6977L148.02 36.5915Z" fill="white"/>
<path fill-rule="evenodd" clip-rule="evenodd" d="M147.902 35.6187V35.9462C149.038 35.9171 148.919 36.1293 148.919 36.1293C149.387 36.1681 149.076 36.3699 149.076 36.3699C149.273 36.4859 149.039 36.6207 149.039 36.6207C149.625 36.9573 151.382 37.0829 151.382 37.0829L151.303 35.609L147.902 35.6187ZM147.668 35.0405L147.709 35.2336C147.081 35.5611 147.434 36.0039 147.434 36.0039C147.299 36.0091 147.182 36.0306 147.123 36.0613C146.692 35.368 147.668 35.0405 147.668 35.0405ZM150.169 36.9867L150.13 37.7097L151.381 37.9595L152.437 37.7288V37.0738L152.006 37.0829V37.642L151.381 37.8147L150.678 37.6893V37.0738L150.169 36.9867Z" fill="white"/>
<path fill-rule="evenodd" clip-rule="evenodd" d="M151.341 37.3225C151.457 37.3225 151.538 37.3034 151.538 37.2651C151.538 37.2269 151.457 37.198 151.341 37.198C151.263 37.198 151.184 37.2266 151.184 37.2651C151.184 37.3037 151.264 37.3225 151.341 37.3225ZM151.694 37.4773C151.773 37.4773 151.851 37.4481 151.851 37.4199C151.851 37.3814 151.773 37.3522 151.694 37.3522C151.576 37.3522 151.497 37.3814 151.497 37.4199C151.497 37.4481 151.576 37.4773 151.694 37.4773ZM151.38 37.5926C151.458 37.5926 151.539 37.5644 151.539 37.5353C151.539 37.5061 151.458 37.4776 151.38 37.4776C151.264 37.4776 151.187 37.5061 151.187 37.5353C151.187 37.5644 151.264 37.5926 151.38 37.5926ZM151.069 37.467C151.187 37.467 151.264 37.4387 151.264 37.4002C151.264 37.371 151.187 37.3419 151.069 37.3419C150.953 37.3419 150.875 37.371 150.875 37.4002C150.875 37.4387 150.952 37.467 151.069 37.467ZM147.708 36.6875C147.667 36.6101 147.823 36.6007 147.823 36.6007C147.979 36.6966 148.294 36.7546 148.294 36.7546V36.7455C148.409 36.8123 148.762 36.88 148.762 36.88C148.802 36.9476 148.528 36.9476 148.528 36.9476C148.02 36.8414 147.708 36.6875 147.708 36.6875ZM148.488 36.7452C148.683 36.6875 148.644 36.6387 148.644 36.6387C148.762 36.6872 148.84 36.6872 148.84 36.6872L148.958 36.6678L149.192 36.754C148.917 36.764 148.76 36.8411 148.76 36.8411C148.528 36.812 148.488 36.7452 148.488 36.7452ZM147.043 36.8314L147.315 36.9282C147.315 36.8897 147.393 36.8605 147.393 36.8605L147.708 36.7837L147.552 36.7161L147.236 36.8029C147.159 36.812 147.043 36.8314 147.043 36.8314ZM146.613 36.6584L146.847 36.7352C146.887 36.6966 146.966 36.6875 146.966 36.6875L147.355 36.6007L147.122 36.5622L146.613 36.6584ZM145.637 35.5888V35.695L145.751 35.6856L146.339 35.6759L145.637 35.8777L146.105 35.9551H146.769V35.8777H146.068L146.769 35.6856V35.5988L146.65 35.6082H145.751L145.637 35.5888ZM145.714 35.3484L145.675 35.4443L145.751 35.4252L146.65 35.4543L146.769 35.4929L146.847 35.3775H146.691L145.871 35.3484L145.714 35.3196V35.3484ZM146.415 34.8285L146.691 34.8764L146.494 34.8955C146.182 34.9629 146.379 35.0015 146.379 35.0015C146.573 35.0306 146.612 34.9729 146.612 34.9729C146.924 34.867 147.159 34.9244 147.159 34.9244C147.552 34.9918 147.277 35.098 147.277 35.098L147.159 35.1365L147.122 35.1654L146.81 35.1365L146.967 35.1077C147.123 35.0786 147.081 35.0312 147.081 35.0312C147.004 34.9441 146.81 35.0312 146.81 35.0312C146.339 35.1466 146.106 35.0212 146.106 35.0212C145.908 34.9338 146.415 34.8285 146.415 34.8285ZM147.552 34.5104V34.5875C147.08 34.5583 147.119 34.674 147.119 34.674C147.235 34.8087 147.628 34.7893 147.628 34.7893V34.8473C147.079 34.8664 146.886 34.741 146.886 34.741C146.691 34.5201 147.552 34.5104 147.552 34.5104ZM147.901 35.5697H151.301V34.3371L147.746 34.3273L147.901 35.5697ZM147.629 33.1136C148.531 32.9199 149.62 32.787 150.792 32.7281V32.9205C149.623 32.8826 147.629 33.1136 147.629 33.1136ZM151.851 32.7381V32.9111C154.272 32.892 155.407 33.1521 155.407 33.1521C153.959 32.7184 151.851 32.7381 151.851 32.7381ZM150.99 32.7281V32.9211H151.655V32.7281H150.99ZM146.65 33.2386C146.418 32.9691 147.236 33.075 147.236 33.075L146.65 33.2386ZM147.511 33.0271C147.433 32.7478 148.176 32.9017 148.176 32.9017L147.511 33.0271ZM148.565 32.844C148.528 32.5648 149.27 32.7284 149.27 32.7284L148.565 32.844ZM149.582 32.7093C149.74 32.3432 150.366 32.6322 150.366 32.6322L149.582 32.7093ZM150.794 32.526H151.851C152.007 32.5836 151.694 32.6704 151.694 32.6704C151.341 32.6996 150.99 32.6607 150.99 32.6607C150.443 32.6322 150.794 32.526 150.794 32.526ZM150.833 32.0925H151.851L151.539 32.2082L151.732 32.2564L151.966 32.179L152.006 32.42L151.497 32.3238L151.732 32.4683L150.833 32.4586L151.223 32.3429L151.108 32.3141L150.715 32.4006L150.677 32.1696L151.069 32.2564L151.187 32.2273L150.833 32.0925ZM155.21 32.9497L155.796 33.0847C155.993 32.7861 155.21 32.9497 155.21 32.9497ZM154.898 32.892L154.194 32.7955C155.013 32.5936 154.898 32.892 154.898 32.892ZM153.179 32.6513L153.881 32.7284C153.881 32.4297 153.179 32.6513 153.179 32.6513ZM152.905 32.6416C152.827 32.5065 152.516 32.5065 152.516 32.5065C152.162 32.4874 152.123 32.6316 152.123 32.6316L152.905 32.6416ZM147.708 34.1155C151.458 33.9325 154.82 34.1155 154.82 34.1155C155.288 34.1346 155.094 34.2214 155.094 34.2214C154.742 34.25 154.587 34.2308 154.587 34.2308C151.694 34.0864 147.825 34.26 147.825 34.26C147.239 34.2694 147.357 34.202 147.357 34.202C147.474 34.0961 147.708 34.1155 147.708 34.1155ZM151.497 34.3371V35.58H154.742L154.858 34.3371H151.497ZM154.742 35.6179H151.497L151.538 37.0918C153.334 37.015 153.843 36.7452 153.843 36.7452C153.921 36.6095 154.74 36.0513 154.74 36.0513V35.6179H154.742ZM152.709 37.0536V37.198C153.413 37.3134 154.272 37.371 154.272 37.371C154.625 37.3419 154.469 37.2648 154.469 37.2648C154.354 37.2418 154.221 37.2257 154.078 37.2172C153.336 37.198 152.709 37.0536 152.709 37.0536ZM153.922 36.7737L154.115 36.8223L153.413 37.073L153.295 37.0053L153.922 36.7737ZM154.27 36.8514L153.609 37.0821C154.624 37.2457 155.21 36.8608 155.21 36.8608C154.624 36.8991 154.27 36.8514 154.27 36.8514ZM154.938 34.9629V35.1945C155.288 35.3484 155.366 35.6759 155.366 35.6759L155.68 35.5411C155.641 35.2036 154.938 34.9629 154.938 34.9629ZM152.67 37.6309V37.7371C152.981 37.8048 153.802 37.8524 153.802 37.8524C153.999 37.833 153.802 37.7662 153.802 37.7662C153.336 37.7662 152.67 37.6309 152.67 37.6309Z" fill="white"/>
<path fill-rule="evenodd" clip-rule="evenodd" d="M153.959 37.5935L154.156 37.4208C154.82 37.4108 154.587 37.2277 154.587 37.2277C155.133 37.1892 155.756 36.9388 155.756 36.9388L155.916 37.0356L156.149 37.151C156.265 37.2086 156.342 37.2381 156.305 37.2381L155.953 37.3149V37.2663L155.288 37.4108L155.522 37.093L154.898 37.449C154.546 37.5458 153.959 37.5935 153.959 37.5935ZM154.078 37.6806C154.624 37.8827 156.423 37.8827 156.423 37.8827C156.228 37.7674 155.719 37.7191 155.719 37.7191C156.502 37.6424 157.205 37.8151 157.205 37.8151C157.636 37.9119 158.103 37.9119 158.103 37.9119C157.991 37.8724 157.861 37.8369 157.713 37.8056C157.945 37.8339 158.181 37.8148 158.181 37.8148C157.91 37.6994 157.127 37.5935 157.127 37.5935C157.948 37.4873 158.652 37.7289 158.652 37.7289C159.002 37.8533 159.316 37.8827 159.316 37.8827L159.08 37.69C159.316 37.8636 160.252 37.9119 160.252 37.9119C160.37 37.8827 160.252 37.8251 160.252 37.8251C159.981 37.8251 159.745 37.7289 159.745 37.7289L159.708 37.5361C158.847 37.507 158.847 37.3916 158.847 37.3916C158.965 37.2186 159.589 37.1995 159.589 37.1995L159.512 36.9773C160.019 36.862 160.997 36.9297 160.997 36.9297C160.918 36.7943 160.488 36.8329 160.488 36.8329C160.488 36.7275 159.983 36.7175 159.983 36.7175V36.7467L158.573 37.0168C158.771 37.286 158.262 37.3725 158.262 37.3725C157.287 37.5273 156.584 37.3152 156.584 37.3152L156.034 37.4023C156.542 37.4111 156.895 37.5273 156.895 37.5273L156.817 37.5467C156.565 37.4961 156.271 37.4599 155.955 37.4402L155.488 37.4879L155.255 37.5364L154.078 37.6806Z" fill="white"/>
<path fill-rule="evenodd" clip-rule="evenodd" d="M157.203 36.7072C157.635 36.5524 157.827 36.302 157.827 36.302L157.987 36.3506L157.755 36.5336L157.911 36.5721L158.182 36.4183L158.379 36.4756L158.067 36.601L158.3 36.6486L158.612 36.543L158.809 36.5816L158.378 36.6878L158.571 36.7549L158.923 36.6201L159.198 36.6687L158.73 36.784L158.923 36.8226L159.395 36.7263L159.551 36.7549L158.416 36.9861C158.024 36.774 157.203 36.7072 157.203 36.7072ZM161.228 36.9379C162.207 36.8802 161.387 36.7549 161.387 36.7549C160.526 36.6781 160.408 36.7163 160.408 36.7163C160.724 36.7455 160.683 36.7931 160.683 36.7931C161.113 36.8031 161.228 36.9379 161.228 36.9379ZM161.268 37.1692L161.621 36.957C161.072 37.0056 160.724 36.9764 160.724 36.9764C160.137 36.957 159.9 36.9956 159.9 36.9956C159.55 37.0441 159.825 37.0538 159.825 37.0538C160.252 37.1592 161.268 37.1692 161.268 37.1692ZM162.401 37.1397L162.597 37.1983L163.536 37.1209L162.987 37.2177L164.004 37.2369L163.536 37.0629L162.401 37.1397ZM159.588 32.8829C159.509 32.7095 159.12 32.6325 159.12 32.6325C158.689 32.5651 158.652 32.623 158.652 32.623C158.652 32.7095 158.923 32.7384 158.923 32.7384L159.588 32.8829ZM160.486 33.0173C160.407 32.9114 160.37 32.902 160.37 32.902C160.214 32.8346 160.096 32.796 160.096 32.796L159.588 32.7095C159.745 32.7866 159.784 32.8829 159.784 32.8829L160.486 33.0173ZM160.525 32.8634C160.758 32.9599 160.722 33.0367 160.722 33.0367L161.347 33.1909C161.347 33.0367 161.035 32.9405 161.035 32.9405L160.527 32.8443V32.8634H160.525ZM159.316 33.9327C159.041 33.9713 158.846 33.9519 158.846 33.9519C158.846 34.0484 159.55 34.0484 159.55 34.0484C159.825 34.0484 160.057 33.981 160.057 33.981V33.9424C159.825 33.981 159.55 33.991 159.55 33.991L159.316 33.9327ZM160.174 34.5971L160.252 34.5298C160.994 34.4815 160.449 34.3467 160.449 34.3467C160.724 34.3179 160.801 34.3373 160.801 34.3373C161.151 34.2888 161.269 34.3947 161.269 34.3947C161.545 34.3373 161.737 34.3756 161.737 34.3756C161.151 34.5106 161.855 34.5586 161.855 34.5586C162.209 34.5586 162.287 34.4721 162.287 34.4721C162.131 34.4329 162.09 34.4047 162.09 34.4047C162.206 34.4156 162.312 34.4317 162.402 34.4527C162.365 34.3947 162.599 34.3947 162.599 34.3947C162.714 34.4433 162.677 34.4815 162.677 34.4815C162.795 34.4527 163.03 34.4815 163.03 34.4815C162.677 34.5777 163.145 34.6645 163.145 34.6645C163.694 34.7413 163.616 34.52 163.616 34.52C164.005 34.52 163.966 34.6065 163.966 34.6065L164.202 34.5586C164.28 34.6163 164.28 34.6551 164.28 34.6551C164.436 34.6065 164.67 34.6457 164.67 34.6457C164.042 34.7416 164.473 34.8287 164.473 34.8287C164.67 34.8673 164.827 34.8381 164.827 34.8381L164.79 34.7708L165.295 34.7902L164.79 34.9347C162.129 34.5586 160.174 34.5971 160.174 34.5971ZM161.387 32.9888L161.892 33.0659C161.855 33.143 161.581 33.2198 161.581 33.2198C161.658 33.143 161.387 32.9888 161.387 32.9888ZM163.807 33.0659C164.865 32.9985 165.568 33.3448 165.568 33.3448L164.788 33.268C164.472 33.1812 163.807 33.0659 163.807 33.0659ZM164.865 33.3257C165.098 33.4028 165.215 33.5278 165.215 33.5278C165.489 33.6052 166.272 33.7209 166.272 33.7209C166.075 33.4028 164.865 33.3257 164.865 33.3257ZM165.371 33.6438C166.74 33.7688 166.31 34.1252 166.31 34.1252C166.113 33.9998 165.764 33.9613 165.764 33.9613C165.371 33.8654 165.371 33.6438 165.371 33.6438ZM165.607 34.0192C165.644 34.0963 165.529 34.2311 165.529 34.2311C165.722 34.3082 165.878 34.4621 165.878 34.4621C166.036 34.4235 166.232 34.1925 166.232 34.1925C166.113 34.0869 165.607 34.0192 165.607 34.0192ZM165.451 34.3276C165.37 34.4332 164.902 34.626 164.902 34.626L165.098 34.6836L165.332 34.7222C165.996 34.5106 165.451 34.3276 165.451 34.3276ZM173.501 37.4581L173.151 37.1306C172.876 37.0244 172.447 37.0921 172.447 37.0921C172.093 37.1592 171.663 37.1206 171.663 37.1206C171.196 37.1012 171.586 37.0244 171.586 37.0244C172.213 36.9285 172.836 36.8799 172.836 36.8799C173.307 36.9285 174.165 36.9185 174.165 36.9185C174.907 36.8902 174.751 37.0438 174.751 37.0438C174.791 37.1883 174.594 37.439 174.594 37.439C174.126 37.439 173.501 37.4581 173.501 37.4581ZM174.751 37.5261L174.948 37.5735L174.362 37.8333L174.087 37.7947C174.476 37.7179 174.751 37.5261 174.751 37.5261ZM175.103 37.5929L174.635 37.8436C175.492 37.8821 176.12 37.7374 176.12 37.7374L176.002 37.5835C175.571 37.6311 175.103 37.5929 175.103 37.5929ZM176.863 37.4866C177.056 37.4964 177.449 37.5349 177.449 37.5349C177.605 37.3622 177.252 37.1497 177.252 37.1497C177.917 37.2071 177.917 37.1397 177.917 37.1397C178.112 37.0053 177.449 36.967 177.449 36.967C176.313 36.8799 175.923 36.8993 175.923 36.8993C176.002 36.9761 175.964 37.0244 175.964 37.0244C175.999 37.0438 175.999 37.1206 175.999 37.1206C177.095 37.2177 176.863 37.4866 176.863 37.4866ZM154.976 34.5012V34.5777L155.367 34.5106L154.976 34.7322L154.938 34.8673L155.563 34.5392L155.367 34.4527L154.976 34.5012ZM155.095 34.9152H155.251L156.071 34.7607L156.149 34.7222L156.342 34.8287H156.228L155.485 34.9732L155.6 35.0503L155.798 35.0983L155.523 35.1271L155.095 34.9152ZM155.798 35.3392L155.916 35.4546L156.109 35.4254L156.423 35.3969L156.696 35.4446H157.085L156.617 35.3675L156.97 35.2716L156.814 35.1562L156.735 35.2039L156.384 35.3198L155.916 35.3487L155.798 35.3392ZM156.423 36.0231C156.228 36.0328 156.305 36.0616 156.305 36.0616C156.696 36.1867 156.931 36.0807 156.931 36.0807C157.049 36.0234 157.008 35.9848 157.008 35.9848L156.894 35.9757C156.894 36.0911 156.66 36.0619 156.66 36.0619C156.502 36.061 156.423 36.0231 156.423 36.0231ZM155.994 36.2055L155.916 36.3311L156.071 36.3988L156.149 36.2829L156.539 36.3311L156.342 36.4274L156.228 36.4371L156.502 36.4756L156.773 36.3208L156.891 36.2829H156.773L155.994 36.1867V36.2055ZM148.295 37.2654C148.216 37.3422 147.941 37.3331 147.941 37.3331L147.51 37.208C147.236 37.1015 147.473 37.0733 147.473 37.0733L148.02 36.8802C148.14 36.8987 148.236 36.9254 148.295 36.957L147.902 37.0824C147.786 37.15 147.98 37.1692 147.98 37.1692L148.295 37.2654Z" fill="white"/>
<path fill-rule="evenodd" clip-rule="evenodd" d="M148.84 36.8608C148.998 37.0244 148.333 36.9858 148.333 36.9858C148.1 37.1012 148.451 37.1012 148.451 37.1012C148.998 37.1109 149.194 36.9761 149.194 36.9761C149.194 36.8902 148.84 36.8608 148.84 36.8608ZM160.407 34.1929L159.939 34.0869C159.939 34.0869 160.328 34.0098 160.251 33.9136C160.251 33.9136 160.525 33.9042 159.98 33.9042L159.783 33.933C159.783 33.933 159.586 33.9136 159.55 33.8845L159.471 33.7691L159.824 33.6635L160.136 33.6729C160.364 33.5961 160.956 33.465 161.461 33.3588L161.621 33.4031C161.424 33.509 161.658 33.5379 161.658 33.5379C161.968 33.5861 162.089 33.4899 162.089 33.4899C162.401 33.5285 162.285 33.4802 162.285 33.4802C161.971 33.4629 161.621 33.3606 161.556 33.3397C161.957 33.2556 162.285 33.1912 162.285 33.1912C162.478 33.0856 162.793 33.0371 162.793 33.0371C162.596 32.9797 162.44 32.8252 162.44 32.8252C163.417 32.8252 163.573 33.0756 163.573 33.0756C166.583 33.6635 164.708 34.588 164.708 34.588C163.807 34.405 161.776 34.2894 161.776 34.2894C162.051 34.1546 162.712 34.0678 162.712 34.0678C164.004 34.0775 163.807 33.6921 163.807 33.6921C163.536 33.557 163.614 33.7594 163.614 33.7594C163.064 34.2023 161.658 33.808 161.658 33.808C161.5 33.7789 161.658 33.8751 161.658 33.8751C161.736 33.9233 161.814 33.9136 161.814 33.9136L161.933 33.9425L160.956 34.039C160.8 34.0969 160.525 34.1932 160.525 34.1932H160.407V34.1929ZM142.236 33.4319C140.596 33.4705 138.603 33.8268 138.603 33.8268C138.368 33.8654 138.33 33.8553 138.33 33.8553C137.938 34.0287 138.76 34.1057 138.76 34.1057C138.648 34.2642 138.758 34.4272 139.072 34.568C139.423 34.6742 139.502 34.9441 139.502 34.9441C139.776 34.8955 139.853 34.7896 139.853 34.7896C140.166 35.1168 141.182 35.1845 141.182 35.1845C141.449 35.199 141.677 35.2409 141.809 35.2998C141.924 35.2039 141.886 35.1077 141.886 35.1077C142.003 35.233 142.472 35.2998 142.472 35.2998C142.551 35.1845 142.708 35.0785 142.708 35.0785C143.059 34.8958 142.785 34.7128 142.785 34.7128C142.943 34.7802 143.294 34.7996 143.294 34.7996C143.059 34.6263 143.294 34.4815 143.294 34.4815C143.412 34.3082 143.137 34.1926 143.137 34.1926L143.062 34.1227C142.892 34.2442 142.979 34.4332 142.979 34.4332C142.784 34.4238 142.588 34.4047 142.588 34.4047C142.706 34.5777 142.236 34.809 142.236 34.809C141.964 34.9149 141.923 34.992 141.923 34.992C141.572 34.8767 140.478 34.7996 140.478 34.7996C140.301 34.7453 140.145 34.6873 140.01 34.6263C139.853 34.6937 139.697 34.6748 139.697 34.6748C139.58 34.5783 139.229 34.4624 139.229 34.4624C138.955 34.347 138.955 34.2314 138.955 34.2314C139.309 34.3953 139.426 34.4339 139.426 34.4339C139.699 34.4727 139.699 34.6069 139.699 34.6069C139.933 34.5783 139.971 34.5109 139.971 34.5109C140.519 34.7322 141.262 34.7711 141.262 34.7711C141.575 34.8096 141.848 34.877 141.848 34.877C141.886 34.7228 142.121 34.6557 142.121 34.6557C142.589 34.4821 142.316 34.2706 142.316 34.2706C142.418 34.3255 142.623 34.365 142.864 34.3762C142.785 34.2897 142.826 34.2126 142.826 34.2126C142.89 34.1504 142.918 34.0626 142.932 33.9953L142.826 33.8945C142.591 33.7691 142.552 33.6826 142.552 33.6826C142.939 33.5087 142.236 33.4319 142.236 33.4319ZM140.634 34.2888C140.945 34.3947 141.378 34.4332 141.378 34.4332C141.61 34.3082 141.534 34.2123 141.534 34.2123C141.182 34.2217 141.026 34.1929 141.026 34.1929C140.907 34.2988 140.634 34.2888 140.634 34.2888ZM139.109 33.8654C139.657 33.9039 139.852 33.8459 139.852 33.8459C140.438 33.7883 140.517 33.9425 140.517 33.9425C140.517 34.0098 140.634 34.0578 140.634 34.0578C140.803 34.062 141.101 34.0487 141.221 34.0192C141.378 33.971 141.143 33.9227 141.143 33.9227C141.064 33.8553 140.986 33.8168 140.986 33.8168C140.986 33.6626 141.417 33.6723 141.417 33.6723C141.69 33.682 141.885 33.6147 141.885 33.6147C141.928 33.6924 141.751 33.7679 141.455 33.7977C141.182 33.8459 141.259 33.9039 141.259 33.9039C141.532 34.0192 141.298 34.029 141.298 34.029C141.243 34.0611 141.13 34.0848 140.994 34.093C141.117 34.1731 141.416 34.164 141.416 34.164C141.846 34.1067 141.846 33.991 141.846 33.991C142.04 34.1255 141.846 34.164 141.846 34.164C142.04 34.2508 141.727 34.2894 141.727 34.2894C141.727 34.453 141.375 34.5304 141.375 34.5304C140.047 34.3376 140.008 34.1161 140.008 34.1161C140.438 34.2991 140.868 34.2126 140.868 34.2126C140.953 34.1913 140.934 34.1297 140.918 34.0976C140.732 34.1057 140.555 34.0972 140.555 34.0972C140.32 34.0202 140.359 33.9625 140.359 33.9625C140.164 33.8563 140.047 33.9434 140.047 33.9434C139.345 34.0481 139.109 33.8654 139.109 33.8654ZM130.082 37.1783C131.177 37.3422 135.203 37.3422 135.203 37.3422C139.071 37.3519 141.182 37.2177 141.182 37.2177C141.65 37.2177 142.433 37.1306 142.433 37.1306C142.589 37.1209 142.509 37.1983 142.509 37.1983C142.277 37.4196 142.471 37.6415 142.471 37.6415C142.471 37.7953 141.807 37.7859 141.807 37.7859C136.14 37.9778 131.608 37.8818 131.608 37.8818C130.279 37.8245 130.239 37.6503 130.239 37.6503C130.552 37.381 130.122 37.2268 130.122 37.2268C129.964 37.1983 130.082 37.1783 130.082 37.1783ZM131.333 37.7471L131.451 37.7179V37.439L131.372 37.3904C132.232 37.3816 132.505 37.4672 132.505 37.4672C133.091 37.7085 132.074 37.7665 132.074 37.7665C131.824 37.7783 131.567 37.7717 131.333 37.7471ZM133.286 37.429L133.872 37.439C133.716 37.4581 133.755 37.5158 133.755 37.5158L133.717 37.7756L133.873 37.833L133.248 37.8239C133.404 37.7947 133.404 37.7756 133.404 37.7756V37.4964C133.404 37.4581 133.286 37.429 133.286 37.429ZM131.84 37.439L131.802 37.7091C132.232 37.7179 132.311 37.6314 132.311 37.6314C132.388 37.5838 132.232 37.5161 132.232 37.5161C132.076 37.439 131.84 37.439 131.84 37.439ZM134.498 37.4581H135.631L135.669 37.5261C135.512 37.5058 135.318 37.5058 135.318 37.5058H135.083V37.6123H135.201L135.474 37.5929L135.436 37.68L135.242 37.67H135.084V37.7862H135.357C135.514 37.7862 135.631 37.7571 135.631 37.7571V37.8339L134.771 37.8248H134.537C134.498 37.8148 134.537 37.8148 134.537 37.8148C134.615 37.8148 134.694 37.7956 134.694 37.7956V37.4973C134.655 37.4776 134.498 37.4581 134.498 37.4581ZM136.256 37.4484L136.842 37.4581C136.807 37.473 136.78 37.4891 136.765 37.5058V37.6988C136.803 37.7756 137.038 37.7665 137.038 37.7665C137.312 37.7568 137.272 37.6697 137.272 37.6697V37.4776L137.195 37.4581H137.624C137.586 37.4672 137.586 37.4867 137.586 37.4867V37.6888C137.546 37.8142 137 37.8245 137 37.8245C136.414 37.8145 136.414 37.68 136.414 37.68V37.487C136.373 37.4715 136.319 37.4584 136.256 37.4484ZM139.109 37.4099L140.047 37.3904L140.164 37.4581C140.047 37.4484 139.89 37.4484 139.89 37.4484H139.657V37.5452H139.89C139.928 37.5355 140.008 37.5261 140.008 37.5261L140.047 37.6123C139.969 37.5929 139.89 37.5929 139.89 37.5929H139.657V37.6991H139.931C140.008 37.6991 140.127 37.67 140.127 37.67V37.7377L139.228 37.7668L139.305 37.7477L139.267 37.4393C139.266 37.4196 139.109 37.4099 139.109 37.4099ZM140.792 37.3713L140.83 37.4481C140.907 37.4093 141.181 37.4093 141.181 37.4093L141.219 37.6885L141.141 37.7085L141.609 37.6885L141.53 37.6794L141.492 37.4005C141.725 37.381 141.843 37.4093 141.843 37.4093L141.805 37.3328L141.766 37.3416L140.868 37.3619H140.789V37.3713H140.792ZM143.056 37.0629C142.783 36.9379 142.977 36.8517 142.977 36.8517C143.213 36.6781 143.876 36.6969 143.876 36.6969C144.267 36.7543 144.23 36.6778 144.23 36.6778C144.619 36.543 145.087 36.6201 145.087 36.6201C145.216 36.6593 145.395 36.6866 145.595 36.6969C145.87 36.784 145.714 36.8317 145.714 36.8317C145.693 36.862 145.721 36.8933 145.791 36.9185C146.145 36.9379 146.103 37.0347 146.103 37.0347C146.181 37.14 145.907 37.3137 145.907 37.3137C145.673 37.3622 145.402 37.3228 145.402 37.3228C145.205 37.3328 145.284 37.3519 145.284 37.3519C145.481 37.4287 145.284 37.4672 145.284 37.4672C144.972 37.5543 144.541 37.5449 144.541 37.5449C143.917 37.5449 143.876 37.4672 143.876 37.4672C143.799 37.4005 143.448 37.4005 143.448 37.4005C142.939 37.3619 142.9 37.2366 142.9 37.2366C142.862 37.1689 143.056 37.1397 143.056 37.1397C143.252 37.1115 143.056 37.0629 143.056 37.0629ZM144.111 37.1501C144.268 37.2945 143.918 37.3525 143.918 37.3525C143.604 37.3622 143.565 37.3039 143.565 37.3039C143.565 37.2466 143.369 37.2369 143.369 37.2369C143.252 37.1209 143.487 37.1209 143.487 37.1209C143.879 37.0921 144.111 37.1501 144.111 37.1501ZM144.854 37.0921C144.933 37.1883 145.482 37.2651 145.482 37.2651C145.753 37.2651 145.638 37.1689 145.638 37.1689C145.482 37.1206 145.56 37.0921 145.56 37.0921C145.95 37.073 145.675 36.9858 145.675 36.9858C144.933 36.9379 144.854 37.0921 144.854 37.0921ZM144.309 36.9379C144.309 36.7549 143.837 36.7649 143.837 36.7649C143.604 36.774 143.604 36.832 143.604 36.832C143.682 36.9288 143.525 36.9288 143.525 36.9288C143.174 36.9479 143.408 37.0441 143.408 37.0441C143.525 37.0827 143.604 37.0733 143.604 37.0733C143.955 37.0733 144.23 37.0247 144.23 37.0247C144.423 37.0153 144.309 36.9379 144.309 36.9379ZM144.817 36.7354C144.933 36.7931 145.129 36.784 145.129 36.784C145.56 36.784 145.285 36.8902 145.285 36.8902C145.052 36.967 144.74 36.9764 144.74 36.9764C144.309 36.852 144.347 36.7843 144.347 36.7843C144.347 36.6295 144.817 36.7354 144.817 36.7354ZM144.542 37.1983C145.129 37.2177 145.089 37.3713 145.089 37.3713C144.933 37.439 144.778 37.4099 144.778 37.4099C144.581 37.3622 144.466 37.4008 144.466 37.4008C144.466 37.487 144.192 37.429 144.192 37.429C144.034 37.2268 144.542 37.1983 144.542 37.1983Z" fill="white"/>
<path fill-rule="evenodd" clip-rule="evenodd" d="M145.087 37.5837C145.673 37.5452 145.673 37.4101 145.673 37.4101C145.721 37.4064 145.765 37.4013 145.807 37.3946C146.235 37.4608 146.338 37.5455 146.338 37.5455C146.494 37.5649 146.73 37.6608 146.73 37.6608C146.691 37.5357 146.456 37.506 146.456 37.506C146.368 37.4453 146.226 37.3904 146.037 37.3454C146.338 37.2535 146.338 37.1117 146.338 37.1117C146.769 37.0732 147.159 37.2076 147.159 37.2076C147.001 37.2271 146.847 37.2177 146.847 37.2177C147.474 37.2844 147.355 37.5257 147.355 37.5257C147.08 37.5257 146.966 37.4966 146.966 37.4966C147.434 37.6314 146.966 37.8918 146.966 37.8918C146.494 37.8435 146.415 37.7088 146.415 37.7088C146.494 37.805 146.338 37.8332 146.338 37.8332C145.949 37.8138 145.791 37.6887 145.791 37.6887C145.752 37.805 145.516 37.7564 145.516 37.7564C145.402 37.7373 145.402 37.6696 145.402 37.6696C145.207 37.6608 145.087 37.5837 145.087 37.5837ZM149.973 37.4778C149.812 37.4687 149.654 37.4559 149.501 37.4398C149.404 37.5054 149.145 37.6644 148.84 37.7473C148.84 37.7473 149.187 37.5758 149.39 37.4277C149.048 37.3885 148.732 37.3372 148.451 37.2753C148.411 37.4198 147.786 37.3424 147.786 37.3424C147.474 37.4869 148.058 37.5263 148.058 37.5263C148.528 37.5163 148.762 37.4486 148.762 37.4486C149.308 37.4204 148.919 37.5263 148.919 37.5263C148.722 37.5737 148.294 37.5931 148.294 37.5931C147.708 37.6417 148.02 37.757 148.02 37.757C148.331 37.8632 148.644 37.8247 148.644 37.8247C148.919 37.8335 148.919 37.8821 148.919 37.8821C149.115 37.9974 149.426 37.9303 149.426 37.9303C149.779 37.8335 149.582 37.7376 149.582 37.7376C149.387 37.6125 149.505 37.5649 149.505 37.5649C149.387 37.3913 149.701 37.5163 149.701 37.5163C149.779 37.5455 149.858 37.6226 149.858 37.6226C149.973 37.6896 150.015 37.642 150.015 37.642L149.973 37.4778ZM143.879 36.6489L144.111 36.5432C144.074 36.427 143.604 36.3602 143.604 36.3602C143.525 36.3988 143.604 36.4464 143.604 36.4464C143.369 36.3602 142.666 36.3019 142.666 36.3019C142.588 36.3502 142.666 36.4464 142.666 36.4464C142.313 36.2825 141.571 36.2734 141.571 36.2734C141.571 36.3502 141.727 36.3988 141.727 36.3988C141.375 36.3311 140.671 36.3502 140.671 36.3502C140.789 36.5238 141.375 36.6392 141.375 36.6392L141.297 36.6877C140.868 36.61 140.751 36.6683 140.751 36.6683C140.713 36.6774 140.751 36.6968 140.751 36.6968C140.985 36.7927 141.845 36.8798 141.845 36.8798C141.61 36.899 141.531 36.9475 141.531 36.9475C141.845 37.1014 142.783 37.092 142.783 37.092C142.659 36.987 142.668 36.8753 142.806 36.7715C142.707 36.7563 142.177 36.6731 142.002 36.6294C142.002 36.6294 141.845 36.5818 141.534 36.5141L140.986 36.4079C140.986 36.4079 141.417 36.4464 141.728 36.5047C141.728 36.5047 142.429 36.6516 142.935 36.7159C143.326 36.6237 143.879 36.6489 143.879 36.6489ZM159.824 37.1503C160.057 37.3907 159.899 37.7094 159.899 37.7094C164.278 38.1231 171.78 37.872 171.78 37.872C173.03 37.8335 173.072 37.7862 173.072 37.7862C173.54 37.7761 173.462 37.6028 173.462 37.6028C173.188 37.516 173.03 37.1691 173.03 37.1691C172.013 37.3136 166.272 37.3521 166.272 37.3521C161.621 37.3819 159.824 37.1503 159.824 37.1503ZM160.37 37.2948L160.801 37.3139L161.035 37.5263L161.503 37.3624L161.892 37.3715L161.855 37.4007V37.7088L161.934 37.7473L161.387 37.7282L161.466 37.699V37.5351L160.958 37.699L160.605 37.4966V37.6796L160.293 37.6411L160.33 37.6219L160.37 37.3418V37.2948ZM162.441 37.4392C161.777 37.5931 162.441 37.7667 162.441 37.7667C162.831 37.8529 163.339 37.7667 163.339 37.7667C163.925 37.5643 163.299 37.4392 163.299 37.4392C162.713 37.3624 162.441 37.4392 162.441 37.4392ZM162.871 37.4486C162.207 37.5263 162.675 37.6993 162.675 37.6993C162.831 37.7865 163.064 37.7188 163.064 37.7188C163.379 37.642 163.143 37.5163 163.143 37.5163C163.064 37.4292 162.871 37.4486 162.871 37.4486ZM163.885 37.4292H164.199L164.708 37.6028L164.667 37.4675L164.628 37.4392L165.135 37.4483L165.058 37.4775V37.805L165.097 37.8332H164.823L164.277 37.6308V37.7664L164.314 37.805L163.924 37.795L163.961 37.7473L164 37.4675L163.885 37.4292ZM166.35 37.4486H166.896C167.482 37.4486 167.601 37.6417 167.601 37.6417C167.601 37.8529 166.776 37.8438 166.776 37.8438L166.348 37.8341L166.505 37.8056L166.465 37.4781L166.35 37.4486ZM166.817 37.4972V37.8053C167.326 37.757 167.208 37.6125 167.208 37.6125C167.092 37.4972 166.817 37.4972 166.817 37.4972ZM167.872 37.4486L168.106 37.4395C168.42 37.401 168.81 37.4298 168.81 37.4298C169.199 37.5361 168.769 37.632 168.769 37.632L169.123 37.7673C169.188 37.7716 169.243 37.7816 169.279 37.7959C169.086 37.815 168.968 37.7959 168.968 37.7959C168.614 37.7385 168.537 37.6611 168.537 37.6611H168.343V37.8056L168.38 37.8341H167.99L168.027 37.8056L167.99 37.4684L167.872 37.4486ZM168.343 37.6223V37.4675C168.5 37.4289 168.614 37.4775 168.614 37.4775C168.811 37.554 168.614 37.6025 168.614 37.6025C168.537 37.6314 168.343 37.6223 168.343 37.6223ZM170.061 37.3819C170.804 37.3718 170.804 37.6125 170.804 37.6125C170.726 37.8053 170.022 37.8053 170.022 37.8053C169.357 37.7862 169.32 37.584 169.32 37.584C169.436 37.3624 170.061 37.3819 170.061 37.3819ZM170.061 37.4392C170.451 37.4483 170.414 37.5931 170.414 37.5931C170.451 37.7285 170.061 37.757 170.061 37.757C169.865 37.7667 169.786 37.6993 169.786 37.6993C169.554 37.5163 169.865 37.459 169.865 37.459C169.906 37.4392 170.061 37.4392 170.061 37.4392ZM171.038 37.3715L171.583 37.3624L171.506 37.401L171.545 37.7376L171.624 37.757L171.156 37.7667L171.193 37.7473L171.156 37.4007L171.038 37.3715ZM171.976 37.3424L172.013 37.4392L172.131 37.4101L172.328 37.401V37.7094L172.287 37.7376L172.678 37.7182L172.641 37.689V37.3715H172.912L172.876 37.2948L172.797 37.3039L172.093 37.3424H171.976ZM155.993 36.9096C156.003 36.9342 156.019 36.9572 156.04 36.9791C156.057 36.9764 156.075 36.9739 156.093 36.9718C156.217 36.8865 156.148 36.8519 156.148 36.8519L156.264 36.8319C156.317 36.8647 156.264 36.9239 156.224 36.9585C156.329 36.9503 156.442 36.9475 156.551 36.9503C156.603 36.9053 156.625 36.8589 156.616 36.8125L156.055 36.7955C155.928 36.8465 155.993 36.9096 155.993 36.9096ZM156.089 37.0228C156.187 37.0969 156.339 37.1533 156.508 37.197C156.689 37.1633 156.648 37.0334 156.626 36.9849C156.434 36.9797 156.242 36.9934 156.089 37.0228ZM156.597 37.2189C156.78 37.2602 156.97 37.2881 157.126 37.3057C157.206 37.2559 157.237 37.2022 157.214 37.1491C156.992 37.1491 156.759 37.1676 156.662 37.1752C156.639 37.1955 156.61 37.2101 156.597 37.2189ZM157.254 37.3187C157.366 37.3294 157.438 37.3333 157.438 37.3333C157.576 37.3382 157.686 37.3372 157.784 37.3333L157.755 37.2456C157.631 37.2438 157.412 37.2708 157.307 37.2856L157.254 37.3187ZM157.909 37.3254C158.108 37.3075 158.253 37.2641 158.286 37.2125C158.168 37.2016 158.04 37.1988 157.916 37.2046L157.909 37.3254ZM158.298 37.174C158.286 37.0431 158.115 36.9527 157.884 36.8877C157.912 36.912 158.012 37.0037 157.949 37.0613L158.142 37.0434L158.179 37.0726L157.907 37.0811C157.923 37.1123 157.919 37.1442 157.897 37.1755C158.103 37.1594 158.236 37.1673 158.298 37.174ZM157.784 36.8625C157.637 36.8295 157.47 36.8027 157.287 36.7833C157.32 36.7949 157.416 36.838 157.402 36.9017C157.514 36.8808 157.646 36.8671 157.784 36.8625ZM157.061 36.7621C156.88 36.7475 156.691 36.739 156.502 36.736C156.365 36.7384 156.235 36.7518 156.131 36.7739L156.705 36.7836L157.061 36.7621ZM156.724 36.8173C156.753 36.8543 156.783 36.888 156.73 36.9211C157.024 36.8935 157.214 36.9075 157.286 36.9147C157.292 36.8732 157.253 36.8319 157.171 36.7955L156.724 36.8173ZM157.434 36.9487C157.487 36.9921 157.478 37.0386 157.412 37.0811C157.627 37.0565 157.762 37.0586 157.834 37.0641C157.864 37.014 157.835 36.9627 157.753 36.9163C157.634 36.9169 157.52 36.9284 157.434 36.9487ZM157.359 37.1211C157.401 37.1648 157.397 37.2104 157.347 37.2535C157.55 37.1994 157.733 37.1979 157.779 37.1979C157.835 37.1785 157.842 37.1163 157.835 37.1002C157.673 37.1005 157.513 37.1075 157.359 37.1211ZM157.3 36.9657C157.104 36.9515 156.895 36.9548 156.707 36.9754C156.742 37.0407 156.73 37.0947 156.698 37.1354C156.871 37.1129 157.067 37.1038 157.26 37.1093C157.328 37.0632 157.342 37.0134 157.3 36.9657ZM147.629 34.0483L146.966 33.5281L147.315 33.2971L147.708 33.6725L147.355 33.634C147.629 33.9324 148.606 33.7785 148.606 33.7785C149.037 33.6631 148.643 33.6246 148.643 33.6246C148.138 33.5569 148.057 33.634 148.057 33.634C147.706 33.3065 148.606 33.4319 148.606 33.4319C148.565 33.2197 148.918 33.2006 148.918 33.2006C149.385 33.2391 149.385 33.4224 149.385 33.4224C149.893 33.22 150.209 33.4319 150.209 33.4319C150.246 33.461 150.169 33.5184 150.169 33.5184C149.544 33.461 149.468 33.6246 149.468 33.6246C149.387 33.7305 150.169 33.7594 150.169 33.7594C151.108 33.692 151.108 33.4413 151.108 33.4413C150.834 33.451 150.366 33.5566 150.366 33.5566V33.1232C150.598 33.2291 151.187 33.2868 151.187 33.2868C151.069 33.0943 150.637 32.9884 150.637 32.9884L152.281 32.979C151.731 33.1044 151.773 33.2874 151.773 33.2874C152.241 33.2683 152.474 33.1526 152.474 33.1526L152.513 33.5281C152.161 33.3936 151.809 33.4516 151.809 33.4516C151.652 33.7399 152.67 33.7499 152.67 33.7499C153.372 33.7499 153.413 33.6055 153.413 33.6055C153.256 33.4322 152.785 33.5281 152.785 33.5281C152.592 33.2391 153.449 33.3645 153.449 33.3645C153.139 33.172 153.683 33.1044 153.683 33.1044C154.351 33.2006 154.035 33.3645 154.035 33.3645C154.937 33.2491 154.779 33.5281 154.779 33.5281C153.921 33.4319 154.035 33.6534 154.035 33.6534C154.429 33.8844 155.208 33.7108 155.208 33.7108C155.365 33.6534 155.405 33.5955 155.405 33.5955L155.051 33.6149L155.405 33.3165L155.716 33.4707L155.949 33.3071L156.146 33.3645L155.011 34.0674C151.576 33.875 147.629 34.0483 147.629 34.0483ZM153.452 33.9135C153.258 33.9041 153.061 33.8844 153.102 33.8653C153.102 33.8364 153.258 33.8267 153.491 33.8364C153.684 33.8459 153.881 33.8653 153.844 33.8844C153.844 33.9135 153.684 33.9229 153.452 33.9135ZM149.23 33.923C149.426 33.9135 149.582 33.8944 149.582 33.8656C149.582 33.8462 149.387 33.8367 149.193 33.8462C148.961 33.8462 148.804 33.875 148.804 33.8944C148.804 33.9135 148.998 33.933 149.23 33.923ZM151.38 33.7305L151.93 33.8462L151.38 33.933L150.875 33.8462L151.38 33.7305ZM158.728 35.2427C158.765 35.1079 159.078 34.954 159.078 34.954L158.622 34.8335L158.466 34.9027C158.551 34.9224 158.61 34.9513 158.61 34.9828C158.61 35.0265 158.498 35.0651 158.358 35.0812L158.321 35.1222L158.728 35.2427ZM158.498 34.8007L157.359 34.5015C156.579 34.2219 156.03 34.357 156.03 34.357L155.485 34.4052C155.916 34.4726 156.148 34.5883 156.148 34.5883C156.616 34.5691 156.657 34.6268 156.657 34.6268L157.868 34.988V34.9831C157.868 34.9252 158.024 34.8772 158.221 34.8772C158.263 34.8772 158.311 34.8796 158.351 34.8842L158.498 34.8007Z" fill="white"/>
<path fill-rule="evenodd" clip-rule="evenodd" d="M156.891 34.7606C156.616 34.6841 156.423 34.6262 156.305 34.655C156.305 34.655 156.658 34.8186 156.931 35.0204C157.126 35.1649 157.283 35.3288 157.245 35.4827L157.827 35.4927L157.981 35.4973L157.928 35.4232C157.76 35.415 157.635 35.371 157.635 35.3194C157.635 35.2517 157.791 35.2031 157.987 35.2031C157.997 35.2031 158.009 35.2031 158.019 35.2041L158.09 35.1209C157.993 35.0927 157.895 35.062 157.791 35.0304C157.635 34.9819 157.438 34.9336 157.283 34.8857C157.166 34.838 157.007 34.7995 156.891 34.7606ZM158.139 35.5021L158.767 35.5221C158.767 35.5221 158.571 35.4444 158.689 35.3L158.273 35.1773L158.227 35.2296C158.324 35.2535 158.379 35.2863 158.377 35.3203C158.375 35.3634 158.269 35.4023 158.109 35.4193L158.139 35.5021Z" fill="white"/>
<path fill-rule="evenodd" clip-rule="evenodd" d="M154.115 36.7358C154.39 36.8321 155.211 36.8035 155.211 36.8035C155.33 36.7844 155.29 36.6691 155.29 36.6691C155.211 36.6014 155.253 36.5628 155.253 36.5628C155.447 36.5716 155.486 36.6296 155.486 36.6296C155.486 36.649 155.368 36.7459 155.368 36.7459C156.228 36.6102 155.486 36.3504 155.486 36.3504C155.683 36.0805 155.954 36.0138 155.954 36.0138C156.852 35.821 157.323 35.8887 157.323 35.8887C158.103 35.8887 159.394 35.9949 159.394 35.9949C159.899 36.0335 161.698 36.1103 161.698 36.1103C161.721 36.0814 161.775 36.055 161.855 36.0335C162.363 35.9467 162.713 35.5324 162.713 35.5324C162.713 35.4656 162.831 35.4938 162.831 35.4938C162.909 35.5706 162.871 35.6001 162.871 35.6001C162.95 35.7445 162.478 36.0044 162.478 36.0044C163.418 36.1391 165.021 36.1109 165.021 36.1109C166.154 36.1109 167.051 35.9664 167.051 35.9664C168.106 35.8511 169.434 35.8793 169.434 35.8793L169.397 35.8219C168.421 35.7154 169.086 35.5904 169.086 35.5904L168.693 35.4556C167.639 35.4365 164.357 35.0128 164.357 35.0128C161.542 34.6276 160.058 34.6947 160.058 34.6947C158.845 35.0128 159.041 35.5427 159.041 35.5427L159.742 35.5621C159.706 35.1958 160.604 35.003 160.604 35.003C160.878 34.9742 160.681 35.0513 160.681 35.0513C159.706 35.4073 160.095 35.658 160.095 35.658C159.664 35.6098 157.084 35.5812 157.084 35.5812C156.661 35.5533 156.208 35.5706 155.837 35.6289C155.366 35.7257 155.173 35.8796 155.173 35.8796L154.665 36.3136C154.156 36.582 154.115 36.7358 154.115 36.7358ZM165.021 35.6089C164.864 35.8113 164.357 36.0332 164.357 36.0332C164.435 36.1003 164.746 35.9946 164.746 35.9946C165.1 35.8398 165.214 35.6277 165.214 35.6277C165.135 35.4653 165.021 35.6089 165.021 35.6089ZM163.729 35.4741C163.536 35.7725 162.95 35.9655 162.95 35.9655C162.831 36.0423 163.182 35.9846 163.182 35.9846C163.691 35.8113 163.847 35.4935 163.847 35.4935C163.807 35.4064 163.729 35.4741 163.729 35.4741ZM164.357 35.5612C164.316 35.7637 163.613 35.9846 163.613 35.9846C163.457 36.0526 163.807 36.0138 163.807 36.0138C164.435 35.8784 164.549 35.5509 164.549 35.5509C164.472 35.445 164.357 35.5612 164.357 35.5612ZM168.655 35.9558C168.931 35.9321 169.226 35.926 169.516 35.9379L169.599 36.0411C169.423 36.0638 169.314 36.1097 169.319 36.1588C169.319 36.2256 169.512 36.2833 169.75 36.2833H169.786V36.4332C169.367 36.4663 168.936 36.4906 168.498 36.5055C167.833 36.544 168.301 36.6402 168.301 36.6402C168.655 36.717 168.732 36.7847 168.732 36.7847C169.044 36.8718 168.537 36.9386 168.537 36.9386C167.482 36.9872 166.308 37.247 166.308 37.247C165.488 37.2661 164.278 37.2379 164.278 37.2379C163.963 37.1796 163.729 37.0448 163.729 37.0448C164.16 36.9489 164.549 37.0642 164.549 37.0642C164.903 37.1125 165.568 37.0934 165.568 37.0934C166.154 37.0166 167.015 36.9198 167.015 36.9198C167.171 36.8912 167.404 36.9003 167.404 36.9003C167.638 36.8812 167.364 36.8327 167.364 36.8327C166.97 36.7647 166.616 36.6836 166.31 36.5923C165.999 36.4669 166.31 36.4093 166.31 36.4093C166.778 36.2736 168.655 35.9558 168.655 35.9558ZM169.757 35.9558C170.011 35.9804 170.227 36.0241 170.375 36.0808C170.608 36.2059 170.531 36.2356 170.531 36.2356C170.453 36.2742 170.531 36.351 170.531 36.351C170.358 36.3771 170.176 36.3989 169.985 36.4162V36.2623C170.109 36.2365 170.179 36.1983 170.178 36.1582C170.178 36.0939 170.001 36.0374 169.779 36.0332L169.757 35.9558Z" fill="white"/>
<path fill-rule="evenodd" clip-rule="evenodd" d="M178.306 35.657C178.503 35.4548 178.347 35.2336 178.347 35.2336C178.072 35.0891 177.798 35.06 177.798 35.06C177.798 34.6463 176.783 34.5883 176.783 34.5883C176.783 34.6654 176.976 34.7713 176.976 34.7713C177.054 34.8099 176.783 34.7616 176.783 34.7616C176.742 34.6268 176.234 34.5592 176.234 34.5592C175.843 34.5018 175.648 34.4341 175.648 34.4341C175.217 34.6071 176.352 34.7907 176.352 34.7907C174.591 34.7713 171.544 34.9252 171.544 34.9252C169.394 35.0509 168.183 34.8678 168.183 34.8678C166.935 34.7234 167.403 34.4438 167.403 34.4438C167.989 34.1549 169.279 34.1837 169.279 34.1837C169.915 34.1879 170.547 34.214 171.157 34.2608C173.031 34.3861 175.024 34.2417 175.024 34.2417C176 34.126 176.314 33.8853 176.314 33.8853C175.728 33.9916 174.906 33.9718 174.906 33.9718C174.401 34.0875 172.756 34.1069 172.756 34.1069C173.852 34.001 173.814 33.8947 173.814 33.8947C173.892 33.8274 174.319 33.7403 174.319 33.7403C173.654 33.7694 172.874 33.9236 172.874 33.9236C172.406 34.0104 171.193 34.0104 171.193 34.0104C171 34.0298 170.647 34.001 170.647 34.001C171.426 33.943 171.468 33.8659 171.468 33.8659C169.631 33.7409 168.027 34.0204 168.027 34.0204C166.464 34.3382 166.935 34.656 166.935 34.656C167.206 34.9644 169.433 35.0603 169.433 35.0603C171.504 35.0894 173.969 35.0029 173.969 35.0029C175.843 34.9452 176.352 35.0126 176.352 35.0126C176.585 35.0512 176.352 35.0603 176.352 35.0603C175.217 35.0217 174.867 35.3492 174.867 35.3492C175.646 35.1374 176.703 35.1953 176.703 35.1953C176.896 35.2044 176.703 35.2148 176.703 35.2148C176.154 35.1953 175.765 35.2824 175.765 35.2824C176.507 35.3978 177.053 35.3492 177.053 35.3492C177.368 35.3301 177.524 35.2533 177.524 35.2533C177.992 35.426 177.955 35.5614 177.757 35.6576C177.482 35.7729 176.975 35.8212 176.975 35.8212C175.842 35.8889 174.239 35.7444 174.239 35.7444C173.771 35.687 172.949 35.6961 172.949 35.6961C172.831 35.687 172.638 35.6676 172.482 35.6576C171.309 35.5705 169.12 35.4937 169.12 35.4937L169.317 35.5614C169.627 35.5808 169.785 35.619 169.824 35.6576C169.861 35.6961 169.785 35.7344 169.785 35.7344C169.706 35.7826 169.588 35.8112 169.588 35.8112L169.748 35.8886C170.998 35.9845 170.761 36.2546 170.761 36.2546C170.879 36.4953 171.466 36.5912 171.466 36.5912C172.794 36.8802 174.162 36.8319 174.162 36.8319C174.633 36.8319 174.712 36.861 174.712 36.861C175.18 36.9287 175.101 37.2368 175.101 37.2368C175.101 37.3622 174.868 37.4966 174.868 37.4966C175.024 37.5928 175.804 37.5452 175.804 37.5452C175.922 37.5352 175.964 37.4966 175.964 37.4966C176.042 37.4393 175.846 37.3813 175.846 37.3813C175.767 37.3521 175.846 37.3622 175.846 37.3622C176.353 37.4195 176.314 37.5643 176.314 37.5643C177.096 37.323 176.002 37.1594 176.002 37.1594C175.846 37.1503 175.728 37.14 175.728 37.14C175.612 37.0155 175.571 36.7648 175.571 36.7648V36.6971L175.181 36.5909C174.085 36.6586 173.305 36.5627 173.305 36.5627C173.342 36.505 173.342 36.4373 173.342 36.4373C173.421 36.2637 173.186 35.8397 173.186 35.8397C173.497 35.8783 175.298 35.955 175.298 35.955C175.725 36.0036 176.586 35.9945 176.586 35.9945C177.604 36.0519 177.29 36.2252 177.29 36.2252C178.112 36.0613 177.406 35.9459 177.406 35.9459C177.959 35.8977 178.192 35.7823 178.306 35.657ZM123.713 35.7532C123.362 35.5507 123.908 35.2909 123.908 35.2909C124.924 34.8961 126.331 34.7998 126.331 34.7998C127.074 34.5206 128.208 34.5206 128.208 34.5206C128.052 34.5977 127.777 34.6651 127.777 34.6651C128.479 34.6265 129.106 34.4821 129.106 34.4821C129.106 34.7036 128.284 34.7904 128.284 34.7904C131.294 34.8866 135.396 34.771 135.396 34.771C137.078 34.7036 136.998 34.3182 136.998 34.3182C136.647 33.9715 134.889 34.1737 134.889 34.1737C131.175 34.7036 129.378 34.0007 129.378 34.0007C130.278 34.0872 132.037 34.0872 132.037 34.0872C131.372 34.0198 130.512 33.7791 130.512 33.7791C131.06 33.7982 131.333 33.8562 131.333 33.8562C132.271 33.9812 133.327 33.9527 133.327 33.9527C133.013 33.8659 132.506 33.7214 132.506 33.7214C133.131 33.7888 133.756 33.7888 133.756 33.7888C134.147 33.7982 134.459 33.8082 134.459 33.8082C135.124 33.8368 135.475 33.8082 135.475 33.8082C137.468 33.8562 137.702 34.3087 137.702 34.3087C137.898 34.8866 135.201 34.9349 135.201 34.9349C134.105 35.0123 128.049 34.9926 128.049 34.9926C128.676 35.06 128.832 35.2044 128.832 35.2044C128.949 35.2721 129.106 35.3207 129.106 35.3207C128.479 35.3295 127.855 35.1276 127.855 35.1276C128.052 35.2236 128.559 35.368 128.559 35.368C128.208 35.4066 127.466 35.185 127.466 35.185C126.293 34.9446 125.277 35.195 125.277 35.195C124.181 35.4063 124.378 35.5893 124.378 35.5893C124.37 35.6509 124.47 35.7107 124.651 35.7532C125.042 35.8691 125.745 35.85 125.745 35.85C126.488 35.85 127.23 35.8015 127.855 35.7532C128.273 35.725 128.68 35.6864 129.068 35.6379C129.186 35.6379 129.303 35.6412 129.419 35.6476C129.77 35.5893 130.279 35.5993 130.279 35.5993C131.997 35.5608 136.922 35.117 136.922 35.117C137.588 35.0402 138.798 34.7319 138.798 34.7319C139.228 34.7992 139.502 35.0499 139.502 35.0499C139.627 35.0287 139.722 34.9983 139.774 34.9631C140.009 35.175 141.181 35.2906 141.181 35.2906C141.532 35.2997 141.808 35.3865 141.808 35.3865L141.924 35.2997C142.08 35.358 143.252 35.5602 144.465 35.7523C145.288 35.8913 146.122 36.0264 146.966 36.1575C148.021 35.8685 148.763 36.0412 148.763 36.0412C148.607 36.0798 148.41 36.0704 148.41 36.0704C147.864 36.0607 147.512 36.1375 147.512 36.1375C148.805 36.0898 149.038 36.1957 149.038 36.1957C149.309 36.3496 148.41 36.4264 148.41 36.4264C148.41 36.2149 147.588 36.224 147.588 36.224C147.929 36.2668 148.152 36.3511 148.174 36.4452C147.9 36.6282 147.236 36.4847 147.236 36.4847C147.002 36.4555 146.65 36.3781 146.65 36.3781C144.738 36.349 142.9 36.0215 142.9 36.0215L141.923 36.128C141.391 36.0288 140.962 35.9001 140.671 35.752C140.556 35.7043 140.477 35.6658 140.477 35.6658V35.752C140.595 35.8874 140.945 36.0027 140.945 36.0027C139.265 36.4747 136.255 36.0513 136.255 36.0513C135.905 36.0221 134.809 35.8776 134.809 35.8776C131.683 35.8685 130.236 36.5618 130.236 36.5618L130.001 36.6577C129.768 37.0917 129.22 37.0917 129.22 37.0917C129.494 36.9278 128.831 36.851 128.831 36.851C128.361 36.8705 127.267 36.8601 127.267 36.8601C126.564 37.1682 127.149 37.3901 127.149 37.3901C128.516 37.381 127.93 37.6499 127.93 37.6499C127.813 37.7367 127.5 37.7367 127.5 37.7367C127.538 37.4578 126.484 37.4769 126.484 37.4769C127.382 37.564 127.187 37.6982 127.187 37.6982C126.955 37.6884 126.719 37.7853 126.719 37.7853C125.391 37.5828 125.586 37.198 125.586 37.198C125.744 36.5329 126.33 36.4073 126.33 36.4073C126.526 36.3882 126.602 36.4173 126.602 36.4173C127.189 36.485 127.97 36.4264 127.97 36.4264C128.283 36.407 128.361 36.2534 128.361 36.2534C128.558 35.9836 129.298 35.7711 129.298 35.7711C128.791 35.8297 125.939 36.0127 125.939 36.0127C124.61 36.0892 124.258 36.3684 124.258 36.3684C123.399 36.1086 124.766 35.9641 124.766 35.9641C124.181 35.9268 123.83 35.85 123.713 35.7532ZM138.993 35.5319C139.346 35.7055 140.4 35.9271 140.4 35.9271C140.517 35.9556 140.713 35.9845 140.713 35.9845C140.634 36.0039 140.44 36.0039 140.44 36.0039C139.541 35.8789 138.955 35.6184 138.955 35.6184C138.759 35.5225 138.993 35.5319 138.993 35.5319ZM137.702 35.7338C138.249 35.8977 138.445 35.9362 138.445 35.9362C138.837 36.0525 139.345 36.1098 139.345 36.1098C138.329 36.1098 137.702 35.8306 137.702 35.8306C137.546 35.7532 137.587 35.7244 137.587 35.7244L137.702 35.7338ZM138.367 35.6087C138.641 35.8015 139.813 35.9945 139.813 35.9945C140.085 36.0136 140.009 36.0613 140.009 36.0613C139.774 36.0713 139.696 36.0421 139.696 36.0421C138.642 35.955 138.29 35.667 138.29 35.667C138.094 35.5611 138.367 35.6087 138.367 35.6087Z" fill="white"/>
</g>
<defs>
<clipPath id="clip0">
<rect width="284" height="70" fill="white"/>
</clipPath>
</defs>
</svg>
